<?xml version="1.0" encoding="UTF-8"?>
<!DOCTYPE svg PUBLIC "-//W3C//DTD SVG 1.1//EN" "http://www.w3.org/Graphics/SVG/1.1/DTD/svg11.dtd">
<!-- Creator: CorelDRAW 2019 (64 Bit) -->
<svg xmlns="http://www.w3.org/2000/svg" xml:space="preserve" width="446px" height="207px" version="1.1" style="shape-rendering:geometricPrecision; text-rendering:geometricPrecision; image-rendering:optimizeQuality; fill-rule:evenodd; clip-rule:evenodd"
viewBox="0 0 446.81 207.13"
 xmlns:xlink="http://www.w3.org/1999/xlink">
 <defs>
  <style type="text/css">
   <![CDATA[
    .fil1 {fill:white}
    .fil0 {fill:white;fill-rule:nonzero}
   ]]>
  </style>
 </defs>
 <g id="Camada_x0020_1">
  <metadata id="CorelCorpID_0Corel-Layer"/>
  <g id="_2076846816784">
   <path class="fil0" d="M148.32 199.26c0,2.44 -0.88,4.36 -2.63,5.77 -1.75,1.4 -4.2,2.1 -7.33,2.1 -2.88,0 -5.43,-0.54 -7.65,-1.62l0 -5.32c1.83,0.81 3.37,1.38 4.63,1.72 1.26,0.33 2.42,0.49 3.46,0.49 1.26,0 2.23,-0.24 2.9,-0.71 0.67,-0.48 1.01,-1.2 1.01,-2.15 0,-0.53 -0.15,-1 -0.45,-1.41 -0.29,-0.42 -0.73,-0.81 -1.3,-1.19 -0.57,-0.39 -1.74,-1 -3.5,-1.83 -1.65,-0.78 -2.89,-1.53 -3.72,-2.24 -0.83,-0.71 -1.48,-1.54 -1.97,-2.5 -0.5,-0.94 -0.75,-2.05 -0.75,-3.32 0,-2.39 0.82,-4.27 2.44,-5.63 1.62,-1.37 3.85,-2.05 6.71,-2.05 1.41,0 2.74,0.16 4.02,0.49 1.28,0.34 2.61,0.8 4,1.41l-1.85 4.45c-1.44,-0.59 -2.63,-1 -3.57,-1.23 -0.95,-0.24 -1.87,-0.36 -2.78,-0.36 -1.09,0 -1.92,0.25 -2.5,0.76 -0.58,0.5 -0.87,1.17 -0.87,1.98 0,0.5 0.12,0.94 0.35,1.32 0.24,0.37 0.61,0.73 1.12,1.09 0.51,0.35 1.72,0.98 3.63,1.89 2.53,1.21 4.26,2.42 5.2,3.63 0.93,1.22 1.4,2.7 1.4,4.46z"/>
   <polygon id="1" class="fil0" points="168.76,206.75 153.21,206.75 153.21,179.74 168.76,179.74 168.76,184.44 158.93,184.44 158.93,190.37 168.08,190.37 168.08,195.06 158.93,195.06 158.93,202.03 168.76,202.03 "/>
   <path id="2" class="fil0" d="M180.12 191.74l1.85 0c1.81,0 3.14,-0.31 4,-0.91 0.86,-0.6 1.29,-1.55 1.29,-2.85 0,-1.28 -0.44,-2.19 -1.32,-2.73 -0.88,-0.54 -2.24,-0.81 -4.09,-0.81l-1.73 0 0 7.3zm0 4.65l0 10.36 -5.73 0 0 -27.01 7.87 0c3.67,0 6.38,0.67 8.14,2.01 1.77,1.34 2.64,3.37 2.64,6.08 0,1.59 -0.43,3 -1.31,4.25 -0.87,1.23 -2.1,2.2 -3.7,2.9 4.06,6.08 6.7,10 7.93,11.77l-6.35 0 -6.45 -10.36 -3.04 0z"/>
   <path id="3" class="fil0" d="M205.09 191.74l1.85 0c1.81,0 3.15,-0.31 4,-0.91 0.87,-0.6 1.3,-1.55 1.3,-2.85 0,-1.28 -0.44,-2.19 -1.32,-2.73 -0.88,-0.54 -2.25,-0.81 -4.09,-0.81l-1.74 0 0 7.3zm0 4.65l0 10.36 -5.72 0 0 -27.01 7.87 0c3.67,0 6.38,0.67 8.14,2.01 1.76,1.34 2.64,3.37 2.64,6.08 0,1.59 -0.44,3 -1.31,4.25 -0.87,1.23 -2.11,2.2 -3.71,2.9 4.06,6.08 6.71,10 7.94,11.77l-6.36 0 -6.44 -10.36 -3.05 0z"/>
   <path id="4" class="fil0" d="M240.88 206.75l-1.96 -6.43 -9.85 0 -1.95 6.43 -6.18 0 9.54 -27.12 7 0 9.57 27.12 -6.17 0zm-3.33 -11.23c-1.81,-5.83 -2.83,-9.12 -3.06,-9.89 -0.22,-0.76 -0.39,-1.37 -0.48,-1.81 -0.41,1.58 -1.58,5.48 -3.49,11.7l7.03 0z"/>
   <polygon id="5" class="fil0" points="272.32,179.74 262.25,206.75 257.13,206.75 267.2,179.74 "/>
   <polygon id="6" class="fil0" points="301.29,206.75 285.73,206.75 285.73,179.74 301.29,179.74 301.29,184.44 291.46,184.44 291.46,190.37 300.6,190.37 300.6,195.06 291.46,195.06 291.46,202.03 301.29,202.03 "/>
   <path id="7" class="fil0" d="M322.87 199.26c0,2.44 -0.88,4.36 -2.64,5.77 -1.75,1.4 -4.2,2.1 -7.32,2.1 -2.88,0 -5.44,-0.54 -7.65,-1.62l0 -5.32c1.82,0.81 3.37,1.38 4.63,1.72 1.26,0.33 2.41,0.49 3.46,0.49 1.26,0 2.23,-0.24 2.89,-0.71 0.68,-0.48 1.01,-1.2 1.01,-2.15 0,-0.53 -0.14,-1 -0.44,-1.41 -0.3,-0.42 -0.73,-0.81 -1.3,-1.19 -0.58,-0.39 -1.74,-1 -3.5,-1.83 -1.66,-0.78 -2.9,-1.53 -3.72,-2.24 -0.83,-0.71 -1.49,-1.54 -1.98,-2.5 -0.49,-0.94 -0.74,-2.05 -0.74,-3.32 0,-2.39 0.81,-4.27 2.43,-5.63 1.62,-1.37 3.86,-2.05 6.72,-2.05 1.4,0 2.74,0.16 4.02,0.49 1.27,0.34 2.6,0.8 4,1.41l-1.85 4.45c-1.44,-0.59 -2.64,-1 -3.58,-1.23 -0.94,-0.24 -1.87,-0.36 -2.78,-0.36 -1.08,0 -1.91,0.25 -2.49,0.76 -0.58,0.5 -0.87,1.17 -0.87,1.98 0,0.5 0.12,0.94 0.35,1.32 0.23,0.37 0.61,0.73 1.12,1.09 0.51,0.35 1.72,0.98 3.63,1.89 2.53,1.21 4.25,2.42 5.19,3.63 0.94,1.22 1.41,2.7 1.41,4.46z"/>
   <g>
    <path class="fil1" d="M311.51 145.52l0.14 0c13.04,0 27.07,-11.37 30.66,-24.82l0 0c0.93,-3.46 1.4,-6.8 1.42,-10.02l0 0 0 -0.42c-0.06,-11.07 -5.53,-20.73 -16.51,-29.32l0 0 -1.76 -1.36 -9.18 9.33 1.4 1.72c0.98,1.21 2.06,2.29 3.1,3.33l0 0c0.84,0.85 1.64,1.65 2.37,2.5l0 0c5.03,5.82 7.03,10.83 6.51,16.23l0 0c-1.06,11.15 -9.31,18.64 -20.54,18.64l0 0c-1.8,0 -3.67,-0.2 -5.54,-0.59l0 0c-8.25,-1.74 -13.65,-6.28 -16.03,-13.5l0 0c-2.88,-8.72 1,-15.19 4.77,-19.07l0 0c6.13,-6.34 12.68,-12.51 19.02,-18.48l0 0c2.84,-2.68 5.69,-5.36 8.51,-8.06l0 0c1.42,-1.36 2.87,-2.69 4.31,-4.03l0 0c4.5,-4.14 9.15,-8.43 12.91,-13.5l0 0c5.4,-7.28 7.59,-16.19 6.17,-25.11l0 0c-1.43,-8.94 -6.28,-16.76 -13.67,-22.01l0 0c-6.43,-4.57 -13.98,-6.98 -21.83,-6.98l0 0c-11.6,0 -22.36,5.45 -28.79,14.58l0 0c-11.5,16.33 -7.57,36.26 9.79,49.57l0 0 1.83 1.4 8.82 -9.85 -1.76 -1.66c-1.19,-1.11 -2.78,-2.89 -3.84,-4.06l0 0c-0.35,-0.4 -0.66,-0.74 -0.96,-1.06l0 0c-5.78,-5.74 -7.58,-12.65 -5.36,-20.55l0 0c2.08,-7.43 7.47,-12.05 15.99,-13.74l0 0c1.74,-0.34 3.49,-0.51 5.21,-0.51l0 0c8.26,0 15.51,4.08 18.91,10.65l0 0c3.41,6.6 2.66,17.48 -5.43,24.65l0 0c-8.26,7.33 -16.32,15.11 -24.11,22.63l0 0c-1.89,1.83 -3.77,3.64 -5.66,5.46l0 0c-1.09,1.04 -2.19,2.06 -3.3,3.08l0 0c-3.53,3.25 -7.19,6.61 -10.08,10.7l0 0c-4.43,6.25 -6.68,12.77 -6.75,19.35l0 0 0 0.62c0.05,5.22 1.49,10.49 4.3,15.67l0 0c6.71,12.35 17.75,18.42 33.63,18.55l0 0c0.44,0.02 0.88,0.04 1.33,0.04z"/>
    <path class="fil0" d="M400.74 0.05l-14.4 0 0 16.78c0,11.67 0.55,22.7 1.37,30.9l-0.19 0c-2.64,-7.11 -6.47,-16.14 -9.66,-22.42l-12.03 -25.26 -17.14 0 0 70.47 14.41 0 0 -17.32c0,-12.58 -0.37,-23.34 -0.83,-31.54l0.37 0c2.55,7.3 6.56,16.5 9.84,23.25l12.31 25.61 15.95 0 0 -70.47zm-205.57 0l-16.06 0 0 42.65c0,11.23 -3.55,15.61 -9.66,15.61 -5.92,0 -9.57,-4.74 -9.57,-15.61l0 -42.65 -16.05 0 0 40.74c0,20.34 8.21,30.74 25.35,30.74 16.87,0 25.99,-10.4 25.99,-30.56l0 -40.92zm54.08 0l-14.41 0 0 16.78c0,11.67 0.55,22.7 1.37,30.9l-0.18 0c-2.65,-7.11 -6.47,-16.14 -9.67,-22.42l-12.03 -25.26 -17.14 0 0 70.47 14.41 0 0 -17.32c0,-12.58 -0.37,-23.34 -0.82,-31.54l0.36 0c2.55,7.3 6.56,16.5 9.84,23.25l12.31 25.61 15.96 0 0 -70.47zm2.13 70.47l16.04 0 0 -70.47 -16.04 0 0 70.47z"/>
    <path class="fil1" d="M74.78 73.99c-18.97,0 -29.9,16.5 -29.9,36.37 0,19.33 9.48,36.11 28.9,36.11 17.77,0 29.72,-12.68 29.72,-37.2 0,-17.13 -8.21,-35.28 -28.72,-35.28zm325.96 1l-14.4 0 0 16.78c0,11.66 0.55,22.7 1.37,30.9l-0.19 0c-2.64,-7.11 -6.47,-16.13 -9.66,-22.42l-12.03 -25.26 -17.14 0 0 70.47 14.41 0 0 -17.32c0,-12.58 -0.37,-23.34 -0.82,-31.54l0.36 0c2.55,7.29 6.56,16.5 9.84,23.24l12.31 25.62 15.95 0 0 -70.47zm43.33 2.19c-3.37,-1.64 -8.57,-3.1 -15.32,-3.1 -16.31,0 -25.43,9.39 -25.43,21.33 0,8.39 5.75,15.32 16.86,20.42 7.3,3.29 10.49,5.65 10.49,9.94 0,4.19 -3.28,7.12 -10.03,7.12 -5.65,0 -11.57,-1.74 -15.31,-3.65l-2.74 13.48c3.28,1.83 10.3,3.65 17.42,3.65 17.04,0 26.8,-9.11 26.8,-21.97 0,-8.75 -4.65,-15.68 -15.86,-20.69 -8.58,-3.92 -11.49,-5.83 -11.49,-9.76 0,-3.46 3.01,-6.47 9.2,-6.47 5.65,0 9.85,1.64 12.4,2.92l3.01 -13.22zm-402.59 0c-3.37,-1.64 -8.57,-3.1 -15.32,-3.1 -16.32,0 -25.43,9.39 -25.43,21.33 0,8.39 5.74,15.32 16.87,20.42 7.29,3.29 10.48,5.65 10.48,9.94 0,4.19 -3.28,7.12 -10.03,7.12 -5.65,0 -11.58,-1.74 -15.32,-3.65l-2.73 13.48c3.28,1.83 10.3,3.65 17.41,3.65 17.05,0 26.8,-9.11 26.8,-21.97 0,-8.75 -4.65,-15.68 -15.86,-20.69 -8.57,-3.92 -11.49,-5.83 -11.49,-9.76 0,-3.46 3.01,-6.47 9.21,-6.47 5.65,0 9.85,1.64 12.4,2.92l3.01 -13.22zm103.79 54.7l-23.33 0 0 -56.89 -16.05 0 0 70.47 39.38 0 0 -13.58zm49.9 -56.89l-16.05 0 0 42.65c0,11.23 -3.56,15.6 -9.67,15.6 -5.92,0 -9.57,-4.74 -9.57,-15.6l0 -42.65 -16.05 0 0 40.74c0,20.34 8.21,30.74 25.35,30.74 16.87,0 25.99,-10.4 25.99,-30.56l0 -40.92zm54.07 0l-52.05 0 0 14.04 17.91 0 0 56.43 16.05 0 0 -56.43 18.09 0 0 -14.04zm2.14 70.47l16.05 0 0 -70.47 -16.05 0 0 70.47zm-177.06 -58.25c8.21,0 12.31,10.3 12.31,22.61 0,13.76 -4.19,23.42 -12.31,23.42 -8.11,0 -12.67,-9.66 -12.58,-23.15 0,-12.13 4.01,-22.88 12.58,-22.88z"/>
   </g>
  </g>
 </g>
</svg>
