<?xml version="1.0" encoding="UTF-8"?>
<!DOCTYPE svg PUBLIC "-//W3C//DTD SVG 1.1//EN" "http://www.w3.org/Graphics/SVG/1.1/DTD/svg11.dtd">
<!-- Creator: CorelDRAW 2019 (64 Bit) -->
<svg xmlns="http://www.w3.org/2000/svg" xml:space="preserve" width="736px" height="350px" version="1.1" style="shape-rendering:geometricPrecision; text-rendering:geometricPrecision; image-rendering:optimizeQuality; fill-rule:evenodd; clip-rule:evenodd"
viewBox="0 0 795.5 378.44"
 xmlns:xlink="http://www.w3.org/1999/xlink">
 <defs>
  <style type="text/css">
   <![CDATA[
    .str0 {stroke:#E6E6E6;stroke-width:12.98;stroke-miterlimit:22.9256}
    .str1 {stroke:#E6E6E6;stroke-width:6.49;stroke-linecap:round;stroke-linejoin:round;stroke-miterlimit:22.9256}
    .fil5 {fill:none}
    .fil1 {fill:none;fill-rule:nonzero}
    .fil2 {fill:#0F599C}
    .fil3 {fill:#E6E6E6}
    .fil4 {fill:#FFCC00}
    .fil0 {fill:#E6E6E6;fill-rule:nonzero}
   ]]>
  </style>
 </defs>
 <g id="Camada_x0020_1">
  <metadata id="CorelCorpID_0Corel-Layer"/>
  <g id="_2077596408224">
   <path class="fil0" d="M21.42 270.52l-5.94 -0.83c-0.04,0.34 -0.21,1.43 -0.42,2.81 -0.32,2.08 -0.75,4.89 -1.12,7.35 -0.19,1.24 -0.36,2.38 -0.49,3.31 -0.14,0.95 -0.23,1.61 -0.29,2.15l0 0c-0.11,1.02 -0.16,2.02 -0.16,3.02 -0.01,8.17 3.57,15.52 9.1,20.67 5.53,5.16 13.05,8.28 21.18,8.28l40.74 0c-0.16,-1.75 -0.24,-3.52 -0.24,-5.3 0,-2.26 0.13,-4.49 0.38,-6.68l-40.88 0c-5.05,0 -9.68,-1.95 -13,-5.05 -3.32,-3.13 -5.3,-7.26 -5.3,-11.92 0,-0.58 0.03,-1.16 0.09,-1.75l0 0c0.01,-0.07 0.05,-0.43 0.12,-0.9 0.23,-1.67 0.72,-4.88 1.17,-7.83 0.23,-1.48 0.45,-2.9 0.62,-4.05 0.18,-1.15 0.31,-2 0.37,-2.45l-5.93 -0.83 0 5.99 0 -5.99zm180.43 46.76l308.03 0c-0.16,-1.75 -0.24,-3.52 -0.24,-5.3 0,-2.26 0.13,-4.49 0.37,-6.68l-308.3 0c0.24,2.19 0.37,4.42 0.37,6.68 0,1.78 -0.08,3.55 -0.23,5.3zm425.85 0l32.95 0c8.66,0 16.55,-3.53 22.22,-9.21 5.68,-5.67 9.21,-13.57 9.21,-22.22l0 -15.33c0,-1.58 -0.64,-3.12 -1.76,-4.24 -1.11,-1.11 -2.66,-1.75 -4.23,-1.75l-81.98 0c4.56,3.4 8.61,7.43 12.02,11.98l63.97 0 0 9.34c0,5.38 -2.17,10.21 -5.7,13.75 -3.54,3.53 -8.37,5.69 -13.75,5.7l-33.08 0c0.24,2.19 0.37,4.42 0.37,6.68 0,1.78 -0.08,3.55 -0.24,5.3zm-94.24 -52.75l-355.2 0c4.55,3.4 8.6,7.43 12.01,11.98l331.18 0c3.41,-4.55 7.46,-8.58 12.01,-11.98zm-425.86 0l-86.18 0c-2.99,0 -5.52,2.2 -5.94,5.16l5.94 0.83 0 5.99 74.17 0c3.41,-4.55 7.46,-8.58 12.01,-11.98z"/>
   <polygon class="fil0" points="686.09,270.53 660.21,270.53 660.21,270.52 686.09,270.52 686.09,264.53 "/>
   <path class="fil0" d="M562.66 165.28c0,0 0,2.1 0,5.64 0,10.61 0,34.07 0,52.05l3 0 0.06 -2.99c-0.59,-0.01 -1.18,-0.02 -1.77,-0.02 -15.9,0 -29.9,4.72 -40.32,11.27 -5.21,3.28 -9.54,7.02 -12.76,10.94 -3.22,3.92 -5.38,8.02 -6.08,12.14 -0.27,1.63 0.83,3.17 2.47,3.45 1.63,0.26 3.17,-0.84 3.44,-2.47 0.44,-2.69 2.04,-5.98 4.79,-9.32 4.12,-5 10.73,-10.06 19.06,-13.8 8.33,-3.76 18.37,-6.22 29.4,-6.22 0.54,0 1.09,0.01 1.64,0.02 0.81,0.01 1.58,-0.29 2.16,-0.86 0.58,-0.56 0.9,-1.33 0.9,-2.14 0,-11.98 0,-26.41 0,-37.84 0,-5.71 0,-10.67 0,-14.21 0,-3.54 0,-5.64 0,-5.64 0,-1.66 -1.34,-3 -2.99,-3 -1.66,0 -3,1.34 -3,3z"/>
   <path class="fil0" d="M400.42 254.8l0 -89.52c0,-1.66 -1.35,-3 -3,-3 -1.65,0 -2.99,1.34 -2.99,3l0 89.52c0,1.66 1.34,3 2.99,3 1.65,0 3,-1.34 3,-3z"/>
   <path class="fil0" d="M202.08 310.98l-5.99 0c0,14.7 -5.94,27.95 -15.57,37.59 -9.64,9.63 -22.9,15.57 -37.59,15.57 -14.7,0 -27.95,-5.94 -37.59,-15.57 -9.63,-9.64 -15.57,-22.89 -15.58,-37.59 0.01,-14.7 5.95,-27.95 15.58,-37.59 9.64,-9.63 22.89,-15.56 37.59,-15.57 14.69,0.01 27.95,5.94 37.59,15.57 9.63,9.64 15.57,22.89 15.57,37.59l11.98 0c0,-17.97 -7.3,-34.29 -19.08,-46.06 -11.77,-11.78 -28.09,-19.08 -46.06,-19.08 -17.97,0 -34.29,7.3 -46.06,19.08 -11.78,11.77 -19.09,28.09 -19.09,46.06 0,17.97 7.31,34.29 19.09,46.07 11.77,11.77 28.09,19.08 46.06,19.07 17.97,0.01 34.29,-7.3 46.06,-19.07 11.78,-11.78 19.08,-28.1 19.08,-46.07l-5.99 0z"/>
   <path class="fil0" d="M627.94 311.98l-5.99 0c0,14.7 -5.94,27.95 -15.57,37.58 -9.64,9.63 -22.89,15.57 -37.6,15.57 -14.69,0 -27.94,-5.94 -37.58,-15.57 -9.63,-9.63 -15.57,-22.88 -15.57,-37.58 0,-14.7 5.94,-27.96 15.57,-37.6 9.64,-9.62 22.89,-15.56 37.58,-15.56 14.7,0 27.96,5.94 37.6,15.57 9.63,9.63 15.57,22.89 15.57,37.59l11.98 0c0.01,-17.97 -7.3,-34.3 -19.08,-46.07 -11.77,-11.78 -28.1,-19.08 -46.07,-19.08 -17.96,0 -34.29,7.31 -46.05,19.08 -11.78,11.77 -19.09,28.1 -19.08,46.07 -0.01,17.97 7.3,34.29 19.08,46.05 11.76,11.78 28.09,19.09 46.05,19.08 17.97,0.01 34.3,-7.3 46.07,-19.08 11.78,-11.76 19.09,-28.08 19.08,-46.05l-5.99 0z"/>
   <path class="fil0" d="M248.16 66.01l2.58 1.51c10.57,-18.08 30.07,-29.28 51,-29.28l66.3 0 0 107.22 -123.99 0c-2.1,1.87 -4.85,3 -7.87,3l-34.92 0c-1.53,0 -2.85,-0.86 -3.51,-2.12l-0.36 0.61c-0.54,0.92 -0.54,2.07 -0.01,3 0.54,0.93 1.53,1.5 2.6,1.5l171.06 0c0.79,0 1.56,-0.32 2.11,-0.88 0.56,-0.55 0.88,-1.32 0.88,-2.11l0 -113.21c0,-0.79 -0.32,-1.56 -0.88,-2.12 -0.55,-0.56 -1.32,-0.88 -2.11,-0.88l-69.3 0c-23.07,0.01 -44.51,12.32 -56.17,32.24l2.59 1.52zm-26.93 52.01l29.51 -50.5 -2.58 -1.51 -2.59 -1.52 -31.28 53.53 6.94 0z"/>
   <path class="fil0" d="M566.52 148.46l0 -3 -168.23 0 0 -107.22 132.61 0c9.01,0.01 17.15,3.65 23.06,9.56 5.92,5.91 9.56,14.05 9.56,23.07l0 77.59 3 0 0 -3 0 3 3 0 0 -77.59c-0.01,-21.34 -17.31,-38.61 -38.62,-38.61l-135.61 0c-0.78,0 -1.56,0.31 -2.11,0.87 -0.56,0.56 -0.88,1.33 -0.88,2.12l0 113.21c0,0.79 0.32,1.56 0.88,2.11 0.55,0.56 1.33,0.88 2.11,0.88l171.23 0c0.79,0 1.56,-0.32 2.12,-0.88 0.56,-0.55 0.88,-1.32 0.88,-2.11l-3 0z"/>
   <path class="fil0" d="M686.11 252.13l0 -1.49 -8.38 0c-4.78,-0.01 -9.09,-1.93 -12.21,-5.06 -3.13,-3.13 -5.05,-7.44 -5.05,-12.21 0,-4.77 1.92,-9.08 5.05,-12.2 3.12,-3.13 7.43,-5.06 12.21,-5.06l6.88 0 0 36.02 1.5 0 0 -1.49 0 1.49 1.49 0 0 -37.52c0,-0.39 -0.15,-0.78 -0.43,-1.06 -0.28,-0.28 -0.67,-0.44 -1.06,-0.44l-8.38 0c-11.2,0 -20.26,9.08 -20.26,20.26 0,11.19 9.06,20.26 20.26,20.26l8.38 0c0.39,0 0.78,-0.16 1.06,-0.44 0.28,-0.28 0.43,-0.66 0.43,-1.06l-1.49 0z"/>
   <path class="fil0" d="M55.08 191.11l-19.33 0c-1.31,0 -2.47,0.86 -2.86,2.12 -1.3,4.22 -2.22,8.64 -2.72,13.14 -1.47,12.79 -2.51,23.26 -3.33,31.82 -0.08,0.83 0.19,1.66 0.75,2.28 0.56,0.62 1.35,0.98 2.19,0.99 9.86,0.15 25.13,0.24 25.28,0.24 13.96,0 25.29,-11.35 25.29,-25.29 0,-13.95 -11.33,-25.3 -25.27,-25.3zm0 3c12.32,0 22.28,9.97 22.28,22.3 0,12.26 -9.96,22.29 -22.28,22.29 0,0 -15.29,-0.09 -25.26,-0.23 0.88,-9.13 1.9,-19.38 3.32,-31.77 0.49,-4.3 1.36,-8.53 2.61,-12.59 10.77,0 19.33,0 19.33,0z"/>
   <path class="fil0" d="M366.96 165.25l0 90.4c0,1.66 1.34,3 3,3 1.65,0 2.99,-1.34 2.99,-3l0 -90.4c0,-1.65 -1.34,-2.99 -2.99,-2.99 -1.66,0 -3,1.34 -3,2.99z"/>
   <path class="fil0" d="M204.03 255.65l0 -90.4c0,-1.65 -1.34,-2.99 -2.99,-2.99 -1.66,0 -3,1.34 -3,2.99l0 90.4c0,1.66 1.34,3 3,3 1.65,0 2.99,-1.34 2.99,-3z"/>
   <path class="fil0" d="M174.09 310.98l-2.99 0c0,7.79 -3.15,14.82 -8.25,19.92 -5.11,5.11 -12.13,8.25 -19.92,8.26 -7.79,-0.01 -14.81,-3.15 -19.92,-8.26 -5.1,-5.1 -8.24,-12.13 -8.24,-19.92 0,-7.79 3.14,-14.81 8.24,-19.92 5.11,-5.1 12.13,-8.24 19.92,-8.24 7.79,0 14.81,3.14 19.92,8.24 5.1,5.11 8.25,12.13 8.25,19.92l5.99 0c0,-18.87 -15.3,-34.15 -34.16,-34.16 -18.87,0.01 -34.15,15.29 -34.16,34.16 0.01,18.87 15.29,34.17 34.16,34.17 18.86,-0.01 34.16,-15.3 34.16,-34.17l-3 0z"/>
   <path class="fil0" d="M599.96 311.98l-3 0c0,7.78 -3.15,14.81 -8.25,19.92 -5.11,5.1 -12.14,8.25 -19.93,8.25 -7.79,0 -14.81,-3.15 -19.91,-8.25 -5.1,-5.11 -8.25,-12.13 -8.25,-19.92 0,-7.79 3.15,-14.82 8.25,-19.93 5.1,-5.1 12.12,-8.25 19.91,-8.25 7.79,0 14.82,3.15 19.93,8.26 5.1,5.1 8.25,12.13 8.25,19.92l5.99 0c0,-18.87 -15.3,-34.16 -34.17,-34.17 -18.87,0.01 -34.15,15.3 -34.15,34.17 0,18.86 15.28,34.16 34.15,34.16 18.87,0 34.17,-15.29 34.17,-34.16l-2.99 0z"/>
   <line class="fil1" x1="346.09" y1="165.28" x2="317.11" y2= "165.28" />
   <path class="fil0" d="M346.09 159.29l-28.98 0c-3.31,0 -5.99,2.68 -5.99,5.99 0,3.3 2.68,5.99 5.99,5.99l28.98 0c3.31,0 5.99,-2.69 5.99,-5.99 0,-3.31 -2.68,-5.99 -5.99,-5.99z"/>
   <line class="fil1" x1="543.88" y1="165.28" x2="514.9" y2= "165.28" />
   <path class="fil0" d="M543.88 159.29l-28.98 0c-3.3,0 -5.99,2.68 -5.99,5.99 0,3.3 2.69,5.99 5.99,5.99l28.98 0c3.31,0 5.99,-2.69 5.99,-5.99 0,-3.31 -2.68,-5.99 -5.99,-5.99z"/>
   <path class="fil0" d="M82.69 316.07c0.21,-1.63 0.34,-3.22 0.34,-4.81 0,-32.83 26.63,-59.43 59.44,-59.43 32.82,0 59.43,26.6 59.43,59.43 0,0.25 -0.02,0.48 -0.02,0.73 -2.03,-5.76 -4.67,-10.92 -7.78,-15.47 -2.5,-8.86 -7.24,-16.78 -13.58,-23.13 -9.64,-9.63 -22.9,-15.56 -37.59,-15.57 -14.7,0.01 -27.95,5.94 -37.59,15.57 -6.38,6.38 -11.13,14.34 -13.62,23.25 -3.9,5.61 -6.99,12.09 -9.03,19.43z"/>
   <path class="fil0" d="M509.18 317.67c0.21,-1.62 0.35,-3.23 0.35,-4.81 0,-32.83 26.6,-59.43 59.43,-59.43 32.82,0 59.43,26.6 59.43,59.43 0,0.25 -0.01,0.49 -0.03,0.74 -2.19,-6.21 -5.08,-11.71 -8.52,-16.52 -2.53,-8.69 -7.22,-16.45 -13.46,-22.69 -9.64,-9.63 -22.9,-15.57 -37.6,-15.57 -14.69,0 -27.94,5.94 -37.58,15.56 -6.95,6.96 -11.98,15.8 -14.24,25.71 -3.31,5.17 -5.97,11.04 -7.78,17.58z"/>
   <path class="fil0" d="M202.08 310.98l-5.99 0c0,14.7 -5.94,27.95 -15.57,37.59 -9.64,9.63 -22.9,15.57 -37.59,15.57 -14.7,0 -27.95,-5.94 -37.59,-15.57 -9.63,-9.64 -15.57,-22.89 -15.58,-37.59 0.01,-14.7 5.95,-27.95 15.58,-37.59 9.64,-9.63 22.89,-15.56 37.59,-15.57 14.69,0.01 27.95,5.94 37.59,15.57 9.63,9.64 15.57,22.89 15.57,37.59l11.98 0c0,-17.97 -7.3,-34.29 -19.08,-46.06 -11.77,-11.78 -28.09,-19.08 -46.06,-19.08 -17.97,0 -34.29,7.3 -46.06,19.08 -11.78,11.77 -19.09,28.09 -19.09,46.06 0,17.97 7.31,34.29 19.09,46.07 11.77,11.77 28.09,19.08 46.06,19.07 17.97,0.01 34.29,-7.3 46.06,-19.07 11.78,-11.78 19.08,-28.1 19.08,-46.07l-5.99 0z"/>
   <path class="fil0" d="M627.94 311.98l-5.99 0c0,14.7 -5.94,27.95 -15.57,37.58 -9.64,9.63 -22.89,15.57 -37.6,15.57 -14.69,0 -27.94,-5.94 -37.58,-15.57 -9.63,-9.63 -15.57,-22.88 -15.57,-37.58 0,-14.7 5.94,-27.96 15.57,-37.59 9.64,-9.63 22.89,-15.57 37.58,-15.57 14.7,0 27.96,5.94 37.6,15.57 9.63,9.63 15.57,22.89 15.57,37.59l11.98 0c0.01,-17.97 -7.3,-34.3 -19.08,-46.07 -11.77,-11.78 -28.1,-19.08 -46.07,-19.08 -17.96,0 -34.29,7.31 -46.05,19.08 -11.78,11.77 -19.09,28.1 -19.08,46.07 -0.01,17.97 7.3,34.29 19.08,46.05 11.76,11.78 28.09,19.09 46.05,19.08 17.97,0.01 34.3,-7.3 46.07,-19.08 11.78,-11.76 19.09,-28.08 19.08,-46.05l-5.99 0z"/>
   <path class="fil0" d="M248.03 136.61l-1.5 0c0,2.86 -1.16,5.44 -3.03,7.32 -1.88,1.87 -4.46,3.03 -7.32,3.03l-34.92 0c-1.37,0 -2.47,-1.1 -2.47,-2.46l0 -22.52c0.01,-1.36 1.11,-2.46 2.47,-2.46l34.92 0c2.86,0 5.44,1.16 7.32,3.03 1.87,1.89 3.03,4.47 3.03,7.34l0 6.72 3 0 0 -6.72c0,-7.38 -5.99,-13.36 -13.35,-13.37l-34.92 0c-3.02,0 -5.46,2.44 -5.46,5.46l0 22.52c0,3.02 2.44,5.45 5.46,5.45l34.92 0c7.36,0 13.35,-5.97 13.35,-13.34l-1.5 0z"/>
   <path class="fil0" d="M236.18 148.46l-10.66 0c2.09,0 4.06,-0.55 5.77,-1.5l4.89 0c2.86,0 5.44,-1.16 7.32,-3.03 1.87,-1.88 3.03,-4.46 3.03,-7.32l0 -6.72c0,-2.87 -1.16,-5.45 -3.03,-7.34 -1.88,-1.87 -4.46,-3.03 -7.32,-3.03l-4.9 0c-1.7,-0.96 -3.67,-1.5 -5.76,-1.5l10.66 0c6.53,0 11.85,5.32 11.85,11.87l0 6.72c0,6.54 -5.32,11.85 -11.85,11.85z"/>
   <path class="fil0" d="M692.08 270.52l0 -213.65c0,-15.68 -6.37,-29.93 -16.65,-40.21 -10.27,-10.28 -24.53,-16.66 -40.23,-16.66l-323.97 0c-33.6,0.01 -65.07,17.44 -82.83,46.03l0 0 -46.19 74.28 0.01 -0.01c-3.75,6.01 -8.91,11.26 -14.79,14.93 -5.88,3.67 -12.42,5.77 -19.13,5.77 -22.67,0 -37.43,1.51 -49.42,3.79 -5.98,1.13 -11.24,2.45 -16.37,3.83 -5.13,1.38 -10.13,2.81 -15.71,4.21l0 0c-14.32,3.57 -25.16,10.98 -32.46,20.51 -7.32,9.53 -11.16,20.97 -12.49,32.68l0 0c-3.27,28.49 -4.45,45.66 -6.39,63.86 -0.35,3.29 2.03,6.25 5.32,6.59 3.29,0.36 6.24,-2.02 6.59,-5.31 1.98,-18.52 3.14,-35.51 6.38,-63.78l0 0c1.15,-10.05 4.38,-19.32 10.09,-26.73 5.73,-7.41 13.88,-13.16 25.88,-16.2l0 0c5.81,-1.46 10.9,-2.92 15.9,-4.26 7.51,-2.01 14.82,-3.78 24.45,-5.08 9.63,-1.3 21.61,-2.13 38.23,-2.13 9.24,0 17.97,-2.89 25.48,-7.59 7.53,-4.71 13.9,-11.23 18.6,-18.74l0.01 -0.01 46.19 -74.29 0 0c15.53,-25.05 43.21,-40.37 72.65,-40.37l323.97 0c12.43,0 23.62,5.02 31.76,13.15 8.13,8.15 13.14,19.33 13.14,31.74l0 213.65c0,3.31 2.68,5.99 5.99,5.99 3.31,0 5.99,-2.68 5.99,-5.99z"/>
   <path class="fil0" d="M248.03 136.61l-1.5 0c0,2.86 -1.16,5.44 -3.03,7.32 -1.88,1.87 -4.46,3.03 -7.32,3.03l-34.92 0c-1.37,0 -2.47,-1.1 -2.47,-2.46l0 -22.52c0.01,-1.36 1.11,-2.46 2.47,-2.46l34.92 0c2.86,0 5.44,1.16 7.32,3.03 1.87,1.89 3.03,4.47 3.03,7.34l0 6.72 3 0 0 -6.72c0,-7.38 -5.99,-13.36 -13.35,-13.37l-34.92 0c-3.02,0.01 -5.46,2.44 -5.46,5.46l0 22.52c0,3.02 2.44,5.45 5.46,5.45l34.92 0c7.36,0 13.35,-5.97 13.35,-13.34l-1.5 0z"/>
   <path class="fil0" d="M7.14 378.44l690.82 0c3.94,0 7.13,-3.19 7.13,-7.13 0,-3.94 -3.19,-7.14 -7.13,-7.14l-690.82 0c-3.95,0 -7.14,3.2 -7.14,7.14 0,3.94 3.19,7.13 7.14,7.13z"/>
  </g>
  <g id="_2077596427552">
   <rect class="fil2 str0" transform="matrix(0.816241 -0.0560834 0.0602576 0.876991 550.311 29.3765)" width="268.15" height="338.79" rx="10.81" ry="10.81"/>
   <path class="fil3" d="M611.21 36.54l34.16 -2.35c-2.56,-2.99 -4.22,-6.8 -4.51,-11.04 -0.72,-10.43 7.16,-19.47 17.59,-20.19 10.44,-0.71 19.48,7.16 20.19,17.6 0.29,4.23 -0.83,8.23 -2.96,11.55l34.16 -2.35c8.9,-0.61 16.92,9.63 17.83,22.77l-131 9.01 0 0c-0.91,-13.14 5.64,-24.39 14.54,-25zm116.46 15.99l0 0z"/>
   <circle class="fil2" transform="matrix(0.421086 -0.0289325 0.0289325 0.421086 659.749 21.8572)" r="18.94"/>
   <path class="fil4" d="M579.53 94.23c-2.17,-0.87 -3.21,-3.34 -2.33,-5.5 0.87,-2.17 3.34,-3.21 5.5,-2.34l24.6 9.96 2.59 -8.75c0.66,-2.23 3,-3.5 5.23,-2.84 2.24,0.66 3.51,3 2.85,5.23l-3.8 12.88c-0.05,0.25 -0.13,0.49 -0.22,0.73 -0.88,2.16 -3.34,3.21 -5.51,2.33l-28.91 -11.7z"/>
   <line class="fil5 str1" x1="636.56" y1="88.9" x2="742.91" y2= "81.59" />
   <line class="fil5 str1" x1="637.68" y1="105.16" x2="698.85" y2= "100.96" />
   <line class="fil5 str1" x1="712.28" y1="100.04" x2="724.55" y2= "99.19" />
   <path class="fil4" d="M582.65 139.7c-2.16,-0.87 -3.21,-3.34 -2.33,-5.5 0.87,-2.17 3.34,-3.21 5.51,-2.34l24.6 9.96 2.58 -8.75c0.66,-2.23 3.01,-3.5 5.24,-2.84 2.23,0.66 3.5,3.01 2.84,5.24l-3.8 12.87c-0.05,0.25 -0.12,0.49 -0.22,0.73 -0.87,2.16 -3.34,3.21 -5.5,2.33l-28.92 -11.7z"/>
   <line class="fil5 str1" x1="639.69" y1="134.37" x2="746.04" y2= "127.06" />
   <line class="fil5 str1" x1="640.81" y1="150.64" x2="701.97" y2= "146.43" />
   <line class="fil5 str1" x1="715.4" y1="145.51" x2="727.67" y2= "144.67" />
   <path class="fil4" d="M585.65 183.28c-2.17,-0.87 -3.21,-3.34 -2.34,-5.5 0.88,-2.17 3.35,-3.21 5.51,-2.34l24.6 9.96 2.58 -8.75c0.66,-2.23 3.01,-3.5 5.24,-2.84 2.24,0.66 3.51,3 2.85,5.24l-3.8 12.87c-0.05,0.25 -0.13,0.49 -0.22,0.73 -0.88,2.16 -3.35,3.21 -5.51,2.33l-28.91 -11.7z"/>
   <line class="fil5 str1" x1="642.68" y1="177.95" x2="749.03" y2= "170.64" />
   <line class="fil5 str1" x1="643.8" y1="194.21" x2="704.97" y2= "190.01" />
   <line class="fil5 str1" x1="718.4" y1="189.09" x2="730.67" y2= "188.25" />
   <path class="fil4" d="M588.73 228.13c-2.17,-0.88 -3.21,-3.35 -2.34,-5.51 0.88,-2.16 3.35,-3.21 5.51,-2.34l24.6 9.96 2.59 -8.75c0.66,-2.23 3,-3.5 5.23,-2.84 2.24,0.66 3.51,3.01 2.85,5.24l-3.8 12.87c-0.05,0.25 -0.13,0.49 -0.22,0.73 -0.88,2.16 -3.34,3.21 -5.51,2.33l-28.91 -11.69z"/>
   <line class="fil5 str1" x1="645.76" y1="222.79" x2="752.11" y2= "215.48" />
   <line class="fil5 str1" x1="646.88" y1="239.06" x2="708.05" y2= "234.85" />
   <line class="fil5 str1" x1="721.48" y1="233.93" x2="733.75" y2= "233.09" />
   <path class="fil4" d="M591.68 271.07c-2.16,-0.87 -3.21,-3.34 -2.33,-5.5 0.87,-2.17 3.34,-3.21 5.5,-2.34l24.6 9.95 2.59 -8.74c0.66,-2.23 3,-3.5 5.23,-2.84 2.24,0.66 3.51,3 2.85,5.23l-3.8 12.88c-0.05,0.24 -0.13,0.49 -0.22,0.73 -0.88,2.16 -3.34,3.2 -5.51,2.33l-28.91 -11.7z"/>
   <line class="fil5 str1" x1="648.71" y1="265.74" x2="755.06" y2= "258.43" />
   <line class="fil5 str1" x1="649.83" y1="282" x2="711" y2= "277.8" />
   <line class="fil5 str1" x1="724.43" y1="276.88" x2="736.7" y2= "276.03" />
  </g>
 </g>
</svg>
