<?xml version="1.0" encoding="UTF-8"?>
<!DOCTYPE svg PUBLIC "-//W3C//DTD SVG 1.1//EN" "http://www.w3.org/Graphics/SVG/1.1/DTD/svg11.dtd">
<!-- Creator: CorelDRAW 2019 (64 Bit) -->
<svg xmlns="http://www.w3.org/2000/svg" xml:space="preserve" width="743px" height="350px" version="1.1" style="shape-rendering:geometricPrecision; text-rendering:geometricPrecision; image-rendering:optimizeQuality; fill-rule:evenodd; clip-rule:evenodd"
viewBox="0 0 811.11 382.04"
 xmlns:xlink="http://www.w3.org/1999/xlink">
 <defs>
  <style type="text/css">
   <![CDATA[
    .fil1 {fill:none;fill-rule:nonzero}
    .fil2 {fill:#0F599C}
    .fil3 {fill:#FFCC00}
    .fil0 {fill:#E6E6E6;fill-rule:nonzero}
   ]]>
  </style>
 </defs>
 <g id="Camada_x0020_1">
  <metadata id="CorelCorpID_0Corel-Layer"/>
  <g id="_2076846815120">
   <g>
    <path class="fil0" d="M696.26 300.58l0 -80.75c0,-47.44 -18.95,-93.17 -52.49,-126.72l-4.26 4.26 -4.26 4.26c31.27,31.28 48.96,73.98 48.95,118.2l0 73.31c4.82,1.08 9.04,3.75 12.06,7.44z"/>
    <path class="fil0" d="M363.54 33.07l0 10.2 2.65 0 -1.88 -1.88c-0.47,0.46 -0.78,1.16 -0.77,1.88l2.65 0 -1.88 -1.88 1.87 1.87 0 -2.64c-0.71,-0.01 -1.41,0.3 -1.87,0.77l1.87 1.87 0 -2.64 -7.33 0c-37.91,0 -74.44,15.13 -101.25,41.93l0 0 -52.26 52.26 17.05 0 43.74 -43.74 0 0c24.52,-24.52 58.03,-38.4 92.72,-38.4l7.33 0c2.58,0.01 4.97,-1.06 6.66,-2.75 1.69,-1.69 2.75,-4.08 2.75,-6.65l0 -10.2 -12.05 0zm-183.69 127.21c-5.18,4.79 -12.07,7.49 -19.16,7.48l-85.44 0c-16.59,0.01 -32.53,6.79 -44.02,18.76l0 0c-11.46,11.97 -17.91,27.96 -17.91,44.53l0 69.54c3.02,-3.69 7.24,-6.37 12.05,-7.45l0 -62.09c0,-13.43 5.26,-26.48 14.56,-36.19l0 0.01c9.19,-9.58 22.03,-15.05 35.32,-15.05l85.44 0c9.86,0 19.37,-3.62 26.72,-10.12 -3.45,-2.21 -6.13,-5.52 -7.56,-9.42z"/>
    <path class="fil0" d="M487.95 33.07l0 10.2 2.65 0 -1.88 -1.88c-0.46,0.46 -0.77,1.15 -0.77,1.88l2.65 0 -1.88 -1.88 1.88 1.88 0 -2.65c-0.72,-0.01 -1.42,0.31 -1.88,0.77l1.88 1.88 0 -2.65 -100.64 0 0 2.64 1.87 -1.87c-0.46,-0.47 -1.16,-0.78 -1.87,-0.77l0 2.64 1.87 -1.87 -1.88 1.88 2.66 0c0,-0.73 -0.31,-1.42 -0.78,-1.88l-1.88 1.88 2.66 0 0 -10.2 -12.06 0 0 10.2c0,2.58 1.07,4.97 2.76,6.65 1.68,1.69 4.07,2.76 6.65,2.75l100.64 0c2.59,0.01 4.97,-1.07 6.65,-2.76 1.69,-1.68 2.76,-4.06 2.76,-6.64l0 -10.2 -12.06 0z"/>
    <path class="fil0" d="M639.51 97.37l4.26 -4.26c-33.53,-33.54 -79.27,-52.49 -126.71,-52.49l-2.68 0 0 2.63 1.86 -1.86c-0.46,-0.47 -1.15,-0.78 -1.86,-0.77l0 2.63 1.86 -1.86 -1.88 1.88 2.66 0c0,-0.73 -0.32,-1.43 -0.78,-1.88l-1.88 1.88 2.66 0 0 -10.2 -12.06 0 0 10.2c0,2.58 1.07,4.97 2.76,6.65 1.69,1.69 4.07,2.76 6.66,2.75l2.68 0c44.22,0 86.93,17.69 118.19,48.96l4.26 -4.26z"/>
    <path class="fil0" d="M692.01 291.26c-2.31,-1.64 -4.95,-2.84 -7.81,-3.48l0 -67.95c0.01,-44.22 -17.68,-86.92 -48.95,-118.2l4.26 -4.26 0.05 -0.05c0.58,0.57 1.16,1.14 1.74,1.72 32.4,32.41 50.71,76.63 50.71,122.46l0 69.76zm-56.76 -189.63c-25.84,-25.85 -59.51,-42.42 -95.39,-47.39 -10.8,-2.89 -21.9,-4.76 -33.16,-5.52 -0.09,-0.13 -0.18,-0.26 -0.26,-0.4l12.4 0c45.01,0 88.47,17.67 120.72,49l-0.05 0.05 -4.26 4.26zm-136.74 -53.27c-1.15,-0.02 -2.31,-0.04 -3.46,-0.04l3.48 0c-0.01,0.02 -0.02,0.03 -0.02,0.04z"/>
    <path class="fil0" d="M652.39 295.62l27.03 0c5.19,0 9.87,2.1 13.28,5.51 3.4,3.4 5.5,8.09 5.5,13.28l0 1.35 3.01 0 0 -1.35c0,-12.04 -9.75,-21.8 -21.79,-21.8l-27.68 0c0.24,1 0.46,2 0.65,3.01z"/>
    <path class="fil0" d="M212.8 295.62l298.49 0c0.19,-1.01 0.41,-2.01 0.65,-3.01l-299.79 0c0.23,1 0.45,2 0.65,3.01z"/>
    <path class="fil0" d="M74.95 334.54l-44.78 0c-5.19,0 -9.88,-2.1 -13.28,-5.5 -3.4,-3.4 -5.5,-8.08 -5.5,-13.28l0 -1.35c0,-5.19 2.1,-9.88 5.5,-13.28 3.4,-3.41 8.09,-5.51 13.28,-5.51l41.52 0c0.2,-1.01 0.41,-2.01 0.65,-3.01l-42.17 0c-12.04,0 -21.79,9.76 -21.8,21.8l0 1.35c0.01,12.05 9.76,21.79 21.8,21.79l45.99 0c-0.43,-0.99 -0.83,-1.99 -1.21,-3.01z"/>
    <path class="fil0" d="M514.55 334.54l-305.02 0c-0.38,1.02 -0.78,2.02 -1.2,3.01l307.43 0c-0.43,-0.99 -0.83,-1.99 -1.21,-3.01z"/>
    <path class="fil0" d="M699.71 315.76l-1.51 0c0,5.2 -2.1,9.88 -5.5,13.28 -3.41,3.4 -8.09,5.5 -13.28,5.5l-30.29 0c-0.38,1.02 -0.78,2.02 -1.21,3.01l31.5 0c12.04,0 21.79,-9.74 21.79,-21.79l-1.5 0z"/>
    <path class="fil0" d="M208.07 309.3l-6.03 0c0,16.53 -6.68,31.44 -17.52,42.28 -10.84,10.83 -25.75,17.51 -42.27,17.51 -16.54,0 -31.45,-6.68 -42.29,-17.51 -10.83,-10.84 -17.51,-25.75 -17.52,-42.28 0.01,-16.53 6.69,-31.44 17.52,-42.28 10.84,-10.83 25.75,-17.51 42.29,-17.51 16.52,0 31.43,6.68 42.27,17.51 10.84,10.84 17.52,25.75 17.52,42.28l12.06 0c0,-19.82 -8.06,-37.83 -21.05,-50.81 -12.98,-12.99 -30.98,-21.04 -50.8,-21.04 -19.83,0 -37.83,8.05 -50.81,21.04 -13,12.98 -21.06,30.99 -21.05,50.81 -0.01,19.82 8.05,37.82 21.05,50.8 12.98,13 30.98,21.05 50.81,21.05 19.82,0 37.82,-8.05 50.8,-21.05 12.99,-12.98 21.05,-30.98 21.05,-50.8l-6.03 0z"/>
    <path class="fil0" d="M180.07 309.93l-3.02 0c0,9.46 -3.82,17.99 -10.01,24.19 -6.2,6.19 -14.73,10.01 -24.18,10.01 -9.45,0 -17.99,-3.82 -24.19,-10.01 -6.2,-6.2 -10.02,-14.73 -10.02,-24.19 0,-9.45 3.82,-17.98 10.02,-24.17 6.2,-6.2 14.74,-10.02 24.19,-10.02 9.45,0 17.98,3.82 24.18,10.02 6.19,6.19 10.01,14.72 10.01,24.17l6.03 0c0,-22.21 -18,-40.22 -40.22,-40.22 -22.22,0 -40.24,18.01 -40.24,40.22 0,22.23 18.02,40.23 40.24,40.23 22.22,0 40.22,-18 40.22,-40.23l-3.01 0z"/>
    <path class="fil0" d="M647.66 309.3l-6.03 0c0,16.53 -6.68,31.44 -17.51,42.28 -10.84,10.83 -25.75,17.51 -42.27,17.51 -16.54,0 -31.45,-6.68 -42.29,-17.51 -10.84,-10.84 -17.51,-25.75 -17.52,-42.28 0.01,-16.53 6.68,-31.44 17.52,-42.28 10.84,-10.83 25.75,-17.51 42.29,-17.51 16.52,0 31.43,6.68 42.27,17.51 10.83,10.84 17.51,25.75 17.51,42.28l12.06 0c0,-19.82 -8.05,-37.83 -21.05,-50.81 -12.98,-12.99 -30.98,-21.04 -50.79,-21.04 -19.83,0 -37.83,8.05 -50.82,21.04 -12.99,12.98 -21.05,30.99 -21.04,50.81 -0.01,19.82 8.05,37.82 21.04,50.8 12.99,13 30.99,21.05 50.82,21.05 19.81,0 37.81,-8.05 50.79,-21.05 13,-12.98 21.05,-30.98 21.05,-50.8l-6.03 0z"/>
    <path class="fil0" d="M619.67 309.93l-3.02 0c0,9.46 -3.82,17.99 -10.01,24.19 -6.2,6.19 -14.73,10.01 -24.19,10.01 -9.45,0 -17.98,-3.82 -24.18,-10.01 -6.2,-6.2 -10.02,-14.73 -10.02,-24.19 0,-9.45 3.82,-17.98 10.02,-24.17 6.2,-6.2 14.73,-10.02 24.18,-10.02 9.46,0 17.99,3.82 24.19,10.02 6.19,6.19 10.01,14.72 10.01,24.17l6.03 0c0,-22.21 -18.01,-40.22 -40.23,-40.22 -22.21,0 -40.23,18.01 -40.23,40.22 0,22.23 18.02,40.23 40.23,40.23 22.22,0 40.23,-18 40.23,-40.23l-3.01 0z"/>
    <path class="fil0" d="M465.54 160.54l-3.02 0c0,4.2 1.73,8.02 4.49,10.74 2.75,2.74 6.57,4.43 10.75,4.43l0.01 0c58.48,-0.08 109.44,-0.18 131.84,-0.23 3.32,0 6.31,-1.36 8.43,-3.48 2.13,-2.11 3.44,-5.03 3.45,-8.18 0,-1.34 -0.24,-2.71 -0.74,-4.05l-0.01 -0.01c-6.72,-17.72 -17.12,-34.06 -30.75,-47.69 -25.28,-25.26 -59.73,-39.55 -95.47,-39.56l-16.81 0c-8.4,0.01 -15.18,6.82 -15.19,15.2l0 72.83 6.03 0 0 -72.83c0.01,-2.54 1.02,-4.81 2.69,-6.48 1.66,-1.67 3.93,-2.69 6.47,-2.69l16.81 0c34.12,0 67.07,13.66 91.2,37.79 13.02,13.01 22.96,28.63 29.38,45.57l0 -0.01c0.25,0.67 0.36,1.31 0.36,1.93 0,1.45 -0.62,2.86 -1.67,3.91 -1.06,1.05 -2.5,1.72 -4.19,1.72 -22.4,0.05 -73.36,0.15 -131.84,0.23l0 0c-2.54,0 -4.83,-1.02 -6.51,-2.68 -1.67,-1.66 -2.69,-3.92 -2.7,-6.46l-3.01 0z"/>
    <path class="fil0" d="M440.18 87.71l3.02 0c-0.01,-8.39 -6.81,-15.19 -15.2,-15.2l-86.52 0c-28.47,0.01 -55.92,11.39 -76.05,31.5l-0.05 0.06 -29.19 30.76c2.43,0.08 4.74,0.63 6.85,1.54l26.71 -28.15 -2.18 -2.07 2.13 2.13c18.99,-18.98 44.92,-29.74 71.78,-29.74l86.52 0c2.54,0 4.81,1.02 6.48,2.69 1.66,1.67 2.69,3.94 2.69,6.48l3.01 0zm-238.53 84.98c0.02,0.21 0.06,0.42 0.12,0.62 0.31,1.04 1.15,1.82 2.21,2.07 0.25,0.05 0.34,0.06 0.45,0.07 0.36,0.03 0.68,0.05 1.22,0.07 3.84,0.12 16.67,0.2 35.74,0.25 19.04,0.05 44.26,0.08 72.68,0.08 35.09,0 75.06,-0.04 114.31,-0.08l-0.01 0c4.17,0 7.92,-1.77 10.57,-4.54 2.65,-2.77 4.25,-6.55 4.26,-10.66l0 -72.86 -6.03 0 0 72.86c0,2.52 -0.99,4.82 -2.59,6.49 -1.6,1.66 -3.75,2.67 -6.21,2.68l0 0c-39.24,0.04 -79.21,0.08 -114.3,0.08 -26.35,0 -49.95,-0.02 -68.43,-0.06 -2.93,1.86 -6.4,2.93 -10.13,2.93l-26.94 0 -1.73 1.82 -1.91 -1.82 -3.28 0z"/>
    <path class="fil0" d="M477.76 172.67c-6.73,0 -12.22,-5.41 -12.22,-12.15l0 -72.82c0,-6.74 5.44,-12.2 12.17,-12.2l16.81 0c34.93,0 68.63,13.98 93.33,38.68 3.25,3.24 6.29,6.64 9.16,10.18 -4.73,-4.23 -9.74,-8.1 -14.98,-11.57 -23.74,-21.92 -55.1,-34.25 -87.51,-34.25l-16.81 0c-2.54,0 -4.81,1.02 -6.47,2.69 -1.67,1.67 -2.68,3.94 -2.69,6.48l0 72.83c0.01,2.54 1.03,4.8 2.7,6.46 1.68,1.66 3.97,2.68 6.51,2.68 0.74,0 1.48,0 2.22,0l0 2.99c-0.74,0 -1.47,0 -2.22,0z"/>
    <path class="fil0" d="M636.34 243.58l-1.51 0c0,10.25 8.32,18.55 18.56,18.55l32.82 0c0.39,0 0.78,-0.16 1.06,-0.44 0.28,-0.28 0.44,-0.67 0.44,-1.06l0 -34.09c0,-0.4 -0.16,-0.78 -0.44,-1.06 -0.28,-0.29 -0.67,-0.45 -1.06,-0.45l-32.82 0c-10.24,0.01 -18.56,8.31 -18.56,18.55l3.02 0c0,-4.29 1.74,-8.16 4.55,-10.98 2.82,-2.81 6.7,-4.55 10.99,-4.55l31.31 0 0 31.07 -31.31 0c-4.29,0 -8.17,-1.74 -10.99,-4.55 -2.81,-2.82 -4.55,-6.69 -4.55,-10.99l-1.51 0z"/>
    <path class="fil0" d="M47.43 234.61l0 1.51c18.76,0 33.97,-15.2 33.97,-33.98l0 -24.33c0,-0.4 -0.16,-0.79 -0.44,-1.07 -0.28,-0.28 -0.67,-0.44 -1.07,-0.44l-0.91 0c-15.35,0 -30.12,6.3 -40.76,17.37l0 0c-10.55,10.99 -16.51,25.7 -16.63,40.93 -0.01,0.4 0.15,0.78 0.43,1.07 0.29,0.29 0.67,0.45 1.07,0.45l24.34 0 0 -3.02 -24.34 0 0 1.51 1.51 0.01c0.11,-14.46 5.78,-28.43 15.8,-38.87l0 0c10.06,-10.47 24.05,-16.44 38.58,-16.44l0.91 0 0 -1.5 -1.5 0 0 24.33c0,8.57 -3.47,16.3 -9.07,21.9 -5.61,5.6 -13.34,9.06 -21.89,9.06l0 1.51z"/>
    <path class="fil0" d="M75.5 253.59l-1.5 0c-0.01,4.77 -3.86,8.64 -8.64,8.65l-40.76 0 0 -17.28 40.76 0c4.79,0 8.64,3.86 8.64,8.63l3.01 0c0,-3.21 -1.3,-6.13 -3.4,-8.23 -2.11,-2.11 -5.03,-3.42 -8.25,-3.42l-42.27 0c-0.39,0 -0.78,0.16 -1.06,0.44 -0.28,0.28 -0.44,0.67 -0.44,1.07l0 20.29c0,0.4 0.16,0.79 0.44,1.07 0.28,0.28 0.67,0.44 1.06,0.44l42.27 0c6.45,0 11.64,-5.23 11.65,-11.66l-1.51 0z"/>
    <path class="fil0" d="M222.12 261.54l0 -73.43c0,-1.67 -1.35,-3.02 -3.01,-3.02 -1.67,0 -3.02,1.35 -3.02,3.02l0 73.43c0,1.67 1.35,3.02 3.02,3.02 1.66,0 3.01,-1.35 3.01,-3.02z"/>
    <path class="fil0" d="M438.38 188.99l0 71.66c0,1.66 1.35,3.01 3.02,3.01 1.66,0 3.01,-1.35 3.01,-3.01l0 -71.66c0,-1.66 -1.35,-3.01 -3.01,-3.01 -1.67,0 -3.02,1.35 -3.02,3.01z"/>
    <path class="fil0" d="M628.24 212.66l-1.51 0c0,5.33 -2.16,10.15 -5.66,13.65 -3.5,3.5 -8.32,5.66 -13.66,5.66 -5.34,0 -10.16,-2.16 -13.66,-5.66 -3.5,-3.5 -5.65,-8.32 -5.65,-13.65 0,-5.35 2.15,-10.17 5.65,-13.67 3.5,-3.49 8.32,-5.65 13.66,-5.65 5.34,0 10.16,2.16 13.66,5.65 3.5,3.51 5.66,8.32 5.66,13.67l3.02 0c-0.01,-12.34 -10.01,-22.33 -22.34,-22.33 -12.34,0 -22.33,9.99 -22.33,22.33 0,12.33 9.99,22.33 22.33,22.33 12.33,-0.01 22.33,-10 22.34,-22.33l-1.51 0z"/>
    <path class="fil0" d="M545.41 30.06l0 -3.02 -205.25 0c-10.76,0.01 -19.9,-7.12 -22.95,-16.88 -0.09,-0.31 -0.13,-0.58 -0.13,-0.83 0,-0.77 0.36,-1.54 1.1,-2.2 0.73,-0.66 1.81,-1.1 2.95,-1.1l2.28 0c0.73,0.01 1.4,0.27 2.23,0.97 0.82,0.69 1.65,1.8 2.34,3l0 0.01c2.43,4.21 6.99,7.04 12.18,7.04l205.25 0c4.83,0 9.06,-2.64 11.3,-6.54l0 0c0.61,-1.08 1.36,-2.06 2.06,-2.65 0.74,-0.61 1.28,-0.82 1.87,-0.82l2.8 0c1.14,-0.01 2.26,0.43 3,1.06 0.75,0.65 1.08,1.35 1.08,2.04 0,0.22 -0.04,0.46 -0.12,0.74l0 -0.01c-2.92,9.35 -11.68,16.18 -21.99,16.17l0 6.03c13.02,-0.01 24.05,-8.59 27.74,-20.4l0.01 -0.01c0.26,-0.84 0.39,-1.69 0.39,-2.52 0,-2.72 -1.36,-5.08 -3.22,-6.64 -1.87,-1.57 -4.29,-2.49 -6.89,-2.49l-2.8 0c-2.33,-0.01 -4.33,1.01 -5.78,2.26 -1.47,1.26 -2.53,2.77 -3.38,4.23l0 0c-1.2,2.09 -3.49,3.53 -6.07,3.52l-205.25 0c-2.97,0.01 -5.56,-1.61 -6.96,-4.02l0.01 0.01c-0.92,-1.59 -2.07,-3.23 -3.64,-4.59 -1.56,-1.34 -3.68,-2.43 -6.16,-2.42l-2.28 0c-2.65,0 -5.1,0.98 -6.95,2.61 -1.84,1.62 -3.13,4.01 -3.13,6.72 0,0.86 0.14,1.75 0.41,2.62 3.81,12.23 15.23,21.11 28.7,21.12l205.25 0 0 -3.01z"/>
    <line class="fil1" x1="417.59" y1="191.83" x2="374.41" y2= "191.83" />
    <path class="fil0" d="M417.59 185.81l-43.18 0c-3.33,0 -6.03,2.69 -6.03,6.02 0,3.33 2.7,6.03 6.03,6.03l43.18 0c3.33,0 6.03,-2.7 6.03,-6.03 0,-3.33 -2.7,-6.02 -6.03,-6.02z"/>
    <path class="fil0" d="M465.54 160.54l-3.02 0c0,4.2 1.73,8.02 4.49,10.74 2.75,2.74 6.57,4.43 10.75,4.43l0.01 0c58.48,-0.08 109.44,-0.18 131.84,-0.23 3.32,0 6.31,-1.36 8.43,-3.48 2.13,-2.11 3.44,-5.03 3.45,-8.18 0,-1.34 -0.24,-2.71 -0.74,-4.05l-0.01 -0.01c-6.72,-17.72 -17.12,-34.06 -30.75,-47.69 -25.28,-25.26 -59.73,-39.55 -95.47,-39.56l-16.81 0c-8.4,0.01 -15.18,6.82 -15.19,15.2l0 72.83 6.03 0 0 -72.83c0.01,-2.54 1.02,-4.81 2.69,-6.48 1.66,-1.67 3.93,-2.69 6.47,-2.69l16.81 0c34.12,0 67.07,13.66 91.2,37.79 13.02,13.01 22.96,28.63 29.38,45.57l0 -0.01c0.25,0.67 0.36,1.31 0.36,1.93 0,1.45 -0.62,2.86 -1.67,3.91 -1.06,1.05 -2.5,1.72 -4.19,1.72 -22.4,0.05 -73.36,0.15 -131.84,0.23l0 0c-2.54,0 -4.83,-1.02 -6.51,-2.68 -1.67,-1.66 -2.69,-3.92 -2.7,-6.46l-3.01 0z"/>
    <path class="fil0" d="M254.43 153.76c0,10.46 -8.46,18.93 -18.92,18.93l-37.88 0c-10.46,0 -18.93,-8.47 -18.93,-18.93 0,-10.46 8.47,-18.95 18.93,-18.95l37.88 0c10.46,0 18.92,8.49 18.92,18.95z"/>
    <path class="fil0" d="M254.43 153.76l-1.5 0c0,4.82 -1.95,9.17 -5.1,12.32 -3.16,3.16 -7.5,5.1 -12.32,5.1l-37.88 0c-4.82,0 -9.17,-1.94 -12.32,-5.1 -3.16,-3.16 -5.11,-7.5 -5.11,-12.32 0,-4.82 1.95,-9.17 5.11,-12.33 3.16,-3.16 7.5,-5.11 12.32,-5.11l37.88 0c4.82,0 9.16,1.95 12.32,5.11 3.15,3.16 5.1,7.51 5.1,12.33l3.01 0c0,-11.29 -9.13,-20.45 -20.43,-20.45l-37.88 0c-11.29,0 -20.44,9.16 -20.44,20.45 0,11.29 9.15,20.44 20.44,20.44l37.88 0c11.29,0 20.43,-9.15 20.43,-20.44l-1.51 0z"/>
    <path class="fil0" d="M235.51 172.69l-15.54 0c2.63,0 5.14,-0.53 7.42,-1.51l8.12 0c4.82,0 9.16,-1.94 12.32,-5.1 3.15,-3.15 5.1,-7.5 5.1,-12.32 0,-4.82 -1.95,-9.17 -5.1,-12.33 -3.16,-3.16 -7.5,-5.11 -12.32,-5.11l-8.13 0c-2.27,-0.97 -4.78,-1.51 -7.41,-1.51l15.54 0c10.46,0 18.92,8.49 18.92,18.95 0,10.46 -8.46,18.93 -18.92,18.93z"/>
    <path class="fil0" d="M696.26 287.19l0 -67.36c0,-47.44 -18.95,-93.17 -52.49,-126.72 -33.53,-33.54 -79.27,-52.49 -126.71,-52.49 -3.33,0 -6.03,2.69 -6.03,6.02 0,3.33 2.7,6.03 6.03,6.03 44.22,0 86.93,17.69 118.19,48.96 31.27,31.28 48.96,73.98 48.96,118.2l0 67.36c0,3.32 2.7,6.02 6.02,6.02 3.33,0 6.03,-2.7 6.03,-6.02z"/>
    <path class="fil0" d="M81.98 314.17c-0.1,-1.8 -0.1,-3.29 -0.1,-4.91 0,-33.44 27.1,-60.53 60.54,-60.53 33.44,0 60.55,27.09 60.55,60.53 0,0.27 -0.02,0.5 -0.04,0.76 -0.29,-0.83 -0.6,-1.66 -0.92,-2.46 -0.45,-15.84 -7.04,-30.09 -17.49,-40.54 -10.84,-10.83 -25.75,-17.51 -42.27,-17.51 -16.54,0 -31.45,6.68 -42.29,17.51 -10.83,10.84 -17.51,25.75 -17.52,42.28 0.01,1.01 0.03,2.02 0.08,3.02 -0.19,0.61 -0.37,1.23 -0.54,1.85z"/>
    <path class="fil0" d="M521.3 314.17c-0.1,-1.8 -0.1,-3.29 -0.1,-4.91 0,-33.44 27.1,-60.53 60.53,-60.53 33.44,0 60.56,27.09 60.56,60.53 0,0.27 -0.02,0.5 -0.04,0.76 -0.2,-0.57 -0.41,-1.14 -0.62,-1.71 -0.27,-16.14 -6.9,-30.67 -17.51,-41.29 -10.84,-10.83 -25.75,-17.51 -42.27,-17.51 -16.54,0 -31.45,6.68 -42.29,17.51 -10.84,10.84 -17.51,25.75 -17.52,42.28 0,0.75 0.02,1.5 0.04,2.24 -0.27,0.87 -0.53,1.74 -0.78,2.63z"/>
    <path class="fil0" d="M647.66 309.3l-6.03 0c0,16.53 -6.68,31.44 -17.51,42.28 -10.84,10.83 -25.75,17.51 -42.27,17.51 -16.54,0 -31.45,-6.68 -42.29,-17.51 -10.84,-10.84 -17.51,-25.75 -17.52,-42.28 0.01,-16.53 6.68,-31.44 17.52,-42.28 10.84,-10.83 25.75,-17.51 42.29,-17.51 16.52,0 31.43,6.68 42.27,17.51 10.83,10.84 17.51,25.75 17.51,42.28l12.06 0c0,-19.82 -8.05,-37.83 -21.05,-50.81 -12.98,-12.99 -30.98,-21.04 -50.79,-21.04 -19.83,0 -37.83,8.05 -50.82,21.04 -12.99,12.98 -21.05,30.99 -21.04,50.81 -0.01,19.82 8.05,37.82 21.04,50.8 12.99,13 30.99,21.05 50.82,21.05 19.81,0 37.81,-8.05 50.79,-21.05 13,-12.98 21.05,-30.98 21.05,-50.8l-6.03 0z"/>
    <path class="fil0" d="M208.07 309.3l-6.03 0c0,16.53 -6.68,31.44 -17.52,42.28 -10.84,10.83 -25.75,17.51 -42.27,17.51 -16.54,0 -31.45,-6.68 -42.29,-17.51 -10.83,-10.84 -17.51,-25.75 -17.52,-42.28 0.01,-16.53 6.69,-31.44 17.52,-42.28 10.84,-10.83 25.75,-17.51 42.29,-17.51 16.52,0 31.43,6.68 42.27,17.51 10.84,10.84 17.52,25.75 17.52,42.28l12.06 0c0,-19.82 -8.06,-37.83 -21.05,-50.81 -12.98,-12.99 -30.98,-21.04 -50.8,-21.04 -19.83,0 -37.83,8.05 -50.81,21.04 -13,12.98 -21.06,30.99 -21.05,50.81 -0.01,19.82 8.05,37.82 21.05,50.8 12.98,13 30.98,21.05 50.81,21.05 19.82,0 37.82,-8.05 50.8,-21.05 12.99,-12.98 21.05,-30.98 21.05,-50.8l-6.03 0z"/>
    <path class="fil0" d="M254.43 153.76l-1.5 0c0,4.82 -1.95,9.17 -5.1,12.32 -3.16,3.16 -7.5,5.1 -12.32,5.1l-37.88 0c-4.82,0 -9.17,-1.94 -12.32,-5.1 -3.16,-3.16 -5.11,-7.5 -5.11,-12.32 0,-4.82 1.95,-9.17 5.11,-12.33 3.16,-3.16 7.5,-5.11 12.32,-5.11l37.88 0c4.82,0 9.16,1.95 12.32,5.11 3.15,3.16 5.1,7.51 5.1,12.33l3.01 0c0,-11.29 -9.13,-20.45 -20.43,-20.45l-37.88 0c-11.29,0 -20.44,9.16 -20.44,20.45 0,11.29 9.15,20.44 20.44,20.44l37.88 0c11.29,0 20.43,-9.15 20.43,-20.44l-1.51 0z"/>
    <path class="fil0" d="M7.18 382.04l695.23 0c3.96,0 7.18,-3.21 7.18,-7.18 0,-3.96 -3.22,-7.18 -7.18,-7.18l-695.23 0c-3.97,0 -7.18,3.22 -7.18,7.18 0,3.97 3.21,7.18 7.18,7.18z"/>
   </g>
   <g>
    <polygon class="fil0" points="718.95,221.61 743.81,250.01 730.49,261.66 705.63,233.26 "/>
    <path class="fil0" d="M719.98 269.81c-8.04,-9.19 -7.11,-23.17 2.08,-31.21 9.2,-8.05 23.17,-7.11 31.22,2.08l52.35 59.83c8.05,9.19 7.12,23.16 -2.08,31.21 -9.19,8.04 -23.17,7.11 -31.21,-2.08l-52.36 -59.83z"/>
    <circle class="fil2" transform="matrix(0.529444 -0.463308 0.463308 0.529443 641.73 146.797)" r="145.98"/>
    <path class="fil0" d="M707.63 222.1c20.8,-18.19 32.25,-43.1 33.95,-68.65 1.7,-25.55 -6.34,-51.76 -24.54,-72.56 -18.2,-20.79 -43.11,-32.24 -68.66,-33.95 -25.55,-1.7 -51.75,6.35 -72.55,24.55 -20.8,18.2 -32.25,43.1 -33.95,68.65 -1.7,25.56 6.34,51.76 24.54,72.56 18.2,20.79 43.11,32.25 68.66,33.95 25.55,1.7 51.76,-6.35 72.55,-24.55zm48.08 -67.71c-1.95,29.17 -15.02,57.6 -38.76,78.37 -23.73,20.77 -53.64,29.96 -82.81,28.01 -29.17,-1.94 -57.6,-15.01 -78.37,-38.75 -20.78,-23.74 -29.96,-53.65 -28.02,-82.82 1.95,-29.17 15.02,-57.6 38.75,-78.37 23.74,-20.77 53.65,-29.95 82.82,-28.01 29.17,1.94 57.6,15.02 78.37,38.75 20.77,23.74 29.96,53.65 28.02,82.82z"/>
   </g>
   <path class="fil3" d="M704.7 175.99c3.91,6.79 -1,15.27 -8.82,15.27l-101.75 0c-7.83,0 -12.72,-8.5 -8.82,-15.27l50.88 -88.21c3.92,-6.79 13.72,-6.78 17.63,0l50.88 88.21 0 0zm-59.69 -18.24c-5.39,0 -9.76,4.37 -9.76,9.76 0,5.39 4.37,9.75 9.76,9.75 5.38,0 9.75,-4.36 9.75,-9.75 0,-5.39 -4.37,-9.76 -9.75,-9.76zm-9.26 -35.05l1.57 28.83c0.07,1.35 1.19,2.41 2.54,2.41l10.29 0c1.35,0 2.47,-1.06 2.54,-2.41l1.58 -28.83c0.08,-1.46 -1.08,-2.69 -2.54,-2.69l-13.44 0c-1.46,0 -2.62,1.23 -2.54,2.69z"/>
  </g>
 </g>
</svg>
