<?xml version="1.0" encoding="UTF-8"?>
<!DOCTYPE svg PUBLIC "-//W3C//DTD SVG 1.1//EN" "http://www.w3.org/Graphics/SVG/1.1/DTD/svg11.dtd">
<!-- Creator: CorelDRAW 2019 (64 Bit) -->
<svg xmlns="http://www.w3.org/2000/svg" xml:space="preserve" width="740px" height="350px" version="1.1" style="shape-rendering:geometricPrecision; text-rendering:geometricPrecision; image-rendering:optimizeQuality; fill-rule:evenodd; clip-rule:evenodd"
viewBox="0 0 806.45 381.65"
 xmlns:xlink="http://www.w3.org/1999/xlink">
 <defs>
  <style type="text/css">
   <![CDATA[
    .fil3 {fill:#FFCC00}
    .fil2 {fill:#FFCC00}
    .fil0 {fill:#E6E6E6;fill-rule:nonzero}
    .fil1 {fill:#FFCC00;fill-rule:nonzero}
   ]]>
  </style>
 </defs>
 <g id="Camada_x0020_1">
  <metadata id="CorelCorpID_0Corel-Layer"/>
  <g id="_2447740869824">
   <path class="fil0" d="M18.14 0l770.17 0c4.96,0 9.49,2.04 12.79,5.32l0.03 0.03c3.28,3.3 5.32,7.83 5.32,12.79l0 345.37c0,5 -2.04,9.53 -5.32,12.82 -3.28,3.28 -7.82,5.32 -12.82,5.32l-770.17 0c-5,0 -9.54,-2.04 -12.82,-5.32 -3.28,-3.29 -5.32,-7.82 -5.32,-12.82l0 -345.37c0,-4.96 2.04,-9.49 5.32,-12.79l0.03 -0.03c3.3,-3.28 7.83,-5.32 12.79,-5.32zm744.26 14.51l-744.26 0c-1.01,0 -1.92,0.4 -2.56,1.05l-0.03 0.02c-0.64,0.64 -1.04,1.55 -1.04,2.56l0 345.37c0,0.99 0.41,1.9 1.07,2.56 0.66,0.66 1.57,1.07 2.56,1.07l744.26 0c0.99,0 1.9,-0.41 2.55,-1.07 0.66,-0.66 1.07,-1.57 1.07,-2.56l0 -345.37c0,-1.01 -0.4,-1.92 -1.04,-2.56l-0.03 -0.02c-0.64,-0.65 -1.54,-1.05 -2.55,-1.05zm21.58 190.27c7.71,0 13.96,-6.25 13.96,-13.95 0,-7.71 -6.25,-13.96 -13.96,-13.96 -7.71,0 -13.96,6.25 -13.96,13.96 0,7.7 6.25,13.95 13.96,13.95z"/>
   <g>
    <path class="fil0" d="M654.99 285.71l0 -30.06c0,-8.02 -3.06,-15.36 -8.18,-20.67 -5.11,-5.32 -12.32,-8.63 -20.4,-8.63l-32.01 0 0 3.1 2.75 -1.43 -2.75 1.43 0 3.1 32.01 0c6.39,0.01 11.92,2.57 15.93,6.72 4.01,4.17 6.45,9.93 6.45,16.38l0 30.05 5.64 0c0.19,0 0.37,0.01 0.56,0.01z"/>
    <path class="fil0" d="M412.58 299.41l1.53 0c0,2.11 -0.2,4.17 -0.57,6.17l136.71 0 0 -6.2 -136.14 0 0 0.03 -1.53 0z"/>
    <path class="fil0" d="M329.57 305.58l17.62 0c-0.37,-2 -0.56,-4.06 -0.56,-6.17l0 -0.03 -13.6 0c-0.44,2.28 -1.57,4.33 -3.14,5.9 -0.11,0.1 -0.21,0.2 -0.32,0.3z"/>
    <path class="fil0" d="M396.64 217.9l-7.92 8.45 -48.07 0c-9.89,0 -18.87,4.02 -25.35,10.5 -6.48,6.48 -10.49,15.46 -10.49,25.35l0 23.93c0.98,-0.28 2.02,-0.43 3.1,-0.43l3.1 0 0 -23.5c0,-8.2 3.31,-15.59 8.68,-20.96 5.37,-5.37 12.76,-8.68 20.96,-8.69l49.41 0c0.87,0 1.68,-0.35 2.27,-0.98l4.31 -4.61 0 -9.06z"/>
    <path class="fil0" d="M594.4 229.45l2.75 -1.43 -26.12 -50 0 0c-3.64,-6.96 -10.87,-11.34 -18.72,-11.34l-95.45 0c-7.81,0 -15.29,3.25 -20.63,8.95l0 0 -36.6 39.08 8.49 0 32.63 -34.84 0 0c4.16,-4.45 10.03,-6.99 16.11,-6.99l95.45 0c5.53,0 10.66,3.1 13.22,8.01l0 0 26.12 50c0.54,1.03 1.59,1.66 2.75,1.66l0 -3.1z"/>
    <path class="fil0" d="M351.92 288.03l-23.22 0c0.42,0.31 0.82,0.66 1.19,1.03 0.16,0.17 0.32,0.34 0.48,0.52l20.97 0c0.18,-0.53 0.37,-1.04 0.58,-1.55z"/>
    <path class="fil0" d="M549.4 288.03l-140.58 0c0.2,0.51 0.4,1.02 0.57,1.55l139.49 0c0.16,-0.53 0.33,-1.04 0.52,-1.55z"/>
    <path class="fil0" d="M627.29 288.03l-14.36 0c0.18,0.51 0.35,1.02 0.51,1.55l12.18 0c0.16,-0.18 0.32,-0.35 0.49,-0.52 0.37,-0.37 0.76,-0.72 1.18,-1.03z"/>
    <path class="fil0" d="M578.46 228.04l-1.37 0.71 0.28 -0.15 -0.32 0 0.04 0.15 0.28 -0.15 -0.32 0 0.33 0 -0.24 -0.22 -0.09 0.22 0.33 0 -0.24 -0.22 0.25 0.23 0 -0.34 -0.25 0.11 0.25 0.23 0 -0.34 -69.17 0c-0.13,0 -0.23,-0.05 -0.32,-0.14 -0.09,-0.09 -0.14,-0.19 -0.14,-0.32l0 -44.77c0,-0.25 0.21,-0.46 0.46,-0.46l35.76 0c5.56,0 10.7,3.12 13.27,8.06l0 0 19.84 38.11 1.37 -0.71 1.38 -0.72 -19.84 -38.11 0 0c-3.11,-5.97 -9.3,-9.72 -16.02,-9.73l-35.76 0c-1.96,0.01 -3.55,1.59 -3.56,3.56l0 44.77c0.01,1.97 1.6,3.55 3.56,3.56l69.17 0c0.78,0 1.5,-0.34 1.98,-0.84 0.49,-0.51 0.78,-1.19 0.78,-1.93 0,-0.43 -0.1,-0.87 -0.31,-1.28l-1.38 0.72z"/>
    <path class="fil0" d="M414.76 231.37l75.24 0c1.95,0 3.53,-1.58 3.53,-3.53l0 -44.22c0,-1.95 -1.58,-3.52 -3.53,-3.52l-30.36 0c-6.73,0 -13.2,2.77 -17.84,7.64l-26.04 27.36c1.04,0.33 1.99,0.86 2.81,1.54l25.47 -26.76c4.05,-4.25 9.72,-6.69 15.6,-6.69l30.36 0c0.23,0 0.43,0.2 0.43,0.43l0 44.22c0,0.23 -0.2,0.43 -0.43,0.43l-70.15 0c-1.24,1.59 -3.03,2.72 -5.09,3.1z"/>
    <path class="fil0" d="M411.01 299.41l-3.1 0c0,7.62 -3.08,14.48 -8.07,19.48 -4.99,4.98 -11.86,8.06 -19.47,8.06 -7.62,0 -14.48,-3.08 -19.48,-8.06 -4.98,-5 -8.06,-11.86 -8.06,-19.48 0,-7.61 3.08,-14.48 8.06,-19.47 5,-4.99 11.86,-8.06 19.48,-8.06 7.61,0 14.48,3.07 19.47,8.06 4.99,4.99 8.07,11.86 8.07,19.47l6.2 0c0,-9.3 -3.78,-17.76 -9.89,-23.85 -6.09,-6.1 -14.54,-9.88 -23.85,-9.88 -9.31,0 -17.76,3.78 -23.86,9.88 -6.1,6.09 -9.88,14.55 -9.88,23.85 0,9.31 3.78,17.76 9.88,23.86 6.1,6.1 14.55,9.88 23.86,9.88 9.31,0 17.76,-3.78 23.85,-9.88 6.11,-6.1 9.89,-14.55 9.89,-23.86l-3.1 0z"/>
    <path class="fil0" d="M393.66 241.36l0 22.51c0,0.69 0.46,1.3 1.13,1.49 4.59,1.28 7.69,2.65 10.21,4.74 2.52,2.1 4.56,5.02 6.8,9.62 0.38,0.77 1.31,1.08 2.08,0.71 0.77,-0.38 1.08,-1.3 0.71,-2.07 -2.33,-4.78 -4.61,-8.15 -7.61,-10.64 -2.99,-2.49 -6.59,-4.01 -11.35,-5.35l-0.42 1.5 1.55 0 0 -22.51c0,-0.86 -0.7,-1.55 -1.55,-1.55 -0.86,0 -1.55,0.69 -1.55,1.55z"/>
    <path class="fil0" d="M494.62 277.45l0 -36.09c0,-0.86 -0.69,-1.55 -1.55,-1.55 -0.86,0 -1.55,0.69 -1.55,1.55l0 36.09c0,0.86 0.69,1.55 1.55,1.55 0.86,0 1.55,-0.69 1.55,-1.55z"/>
    <path class="fil0" d="M396.51 299.41l-1.55 0c0,4.04 -1.63,7.67 -4.27,10.32 -2.65,2.64 -6.29,4.27 -10.32,4.27 -4.04,0 -7.68,-1.63 -10.32,-4.27 -2.65,-2.64 -4.27,-6.28 -4.27,-10.32 0,-4.03 1.62,-7.67 4.27,-10.31 2.64,-2.65 6.28,-4.28 10.32,-4.28 4.03,0 7.67,1.63 10.32,4.28 2.64,2.64 4.27,6.28 4.27,10.31l3.1 0c0,-9.77 -7.92,-17.69 -17.69,-17.69 -9.78,0 -17.69,7.92 -17.69,17.69 0,9.78 7.91,17.69 17.69,17.69 9.77,0 17.69,-7.91 17.69,-17.69l-1.55 0z"/>
    <path class="fil0" d="M504.8 240.99l0 35.25c0,0.85 0.69,1.55 1.55,1.55 0.85,0 1.55,-0.7 1.55,-1.55l0 -35.25c0,-0.86 -0.7,-1.55 -1.55,-1.55 -0.86,0 -1.55,0.69 -1.55,1.55z"/>
    <path class="fil0" d="M550.99 277.04c3.71,-6.1 8.46,-9.58 13.21,-11.59 4.75,-2.01 9.5,-2.51 13.06,-2.51 1.67,0 3.08,0.11 4.1,0.22 0.5,0.06 0.91,0.12 1.21,0.16 0.15,0.02 0.27,0.04 0.37,0.06 0.11,0.01 0.15,0.02 0.31,0.04 0.43,0.03 0.85,-0.12 1.16,-0.42 0.32,-0.29 0.5,-0.7 0.5,-1.13l0 -20.88c0,-0.86 -0.7,-1.55 -1.55,-1.55 -0.86,0 -1.55,0.69 -1.55,1.55l0 20.88 1.55 0 0.1 -1.55 -0.06 0.95 0.11 -0.94 -0.05 -0.01 -0.06 0.95 0.11 -0.94c-0.01,0 -0.26,-0.04 -0.58,-0.09 -1.01,-0.14 -3.04,-0.4 -5.67,-0.4 -3.85,0 -9.01,0.53 -14.27,2.76 -5.25,2.21 -10.6,6.16 -14.65,12.83 -0.45,0.73 -0.21,1.69 0.52,2.13 0.73,0.45 1.68,0.21 2.13,-0.52z"/>
    <path class="fil0" d="M312.95 276.28l0 0.77c3.99,0 7.23,-3.23 7.23,-7.22 0,-4 -3.24,-7.24 -7.23,-7.24l-4.94 0c-0.41,0 -0.75,0.32 -0.77,0.72 -0.05,0.66 -0.11,1.33 -0.11,2.05l0 10.92c0,0.2 0.08,0.4 0.23,0.55 0.14,0.14 0.34,0.22 0.55,0.22l5.04 0 0 -1.54 -4.27 0 0 -10.15c0,-0.63 0.06,-1.27 0.1,-1.94l-0.77 -0.06 0 0.78 4.94 0c1.57,0 2.99,0.64 4.02,1.66 1.03,1.04 1.66,2.45 1.66,4.03 0,1.57 -0.63,2.98 -1.66,4.01 -1.03,1.03 -2.45,1.66 -4.02,1.67l0 0.77z"/>
    <path class="fil0" d="M486.23 238.26l-13.56 0c-1.71,0 -3.1,1.38 -3.1,3.1 0,1.71 1.39,3.1 3.1,3.1l13.56 0c1.71,0 3.1,-1.39 3.1,-3.1 0,-1.72 -1.39,-3.1 -3.1,-3.1z"/>
    <path class="fil0" d="M576.56 238.26l-13.57 0c-1.71,0 -3.1,1.38 -3.1,3.1 0,1.71 1.39,3.1 3.1,3.1l13.57 0c1.71,0 3.1,-1.39 3.1,-3.1 0,-1.72 -1.39,-3.1 -3.1,-3.1z"/>
    <path class="fil0" d="M420.85 223.11l-0.78 0c0,1.89 -0.77,3.6 -2.01,4.84 -1.24,1.24 -2.95,2.01 -4.84,2.01l-13.62 0c-0.78,0 -1.41,-0.63 -1.41,-1.41l0 -10.88c0,-0.78 0.63,-1.41 1.41,-1.41l13.62 0c1.89,0 3.6,0.77 4.84,2.01 1.24,1.24 2.01,2.95 2.01,4.84l1.55 0c0,-4.64 -3.76,-8.4 -8.4,-8.4l-13.62 0c-1.63,0 -2.96,1.33 -2.96,2.96l0 10.88c0,1.64 1.33,2.96 2.96,2.96l13.62 0c4.64,0 8.4,-3.76 8.4,-8.4l-0.77 0z"/>
    <path class="fil0" d="M611.8 299.41l-3.1 0c0,7.62 -3.08,14.48 -8.06,19.48 -5,4.98 -11.86,8.06 -19.47,8.06 -7.62,0 -14.49,-3.08 -19.48,-8.06 -4.99,-5 -8.06,-11.86 -8.07,-19.48 0.01,-7.61 3.08,-14.48 8.07,-19.47 4.99,-4.99 11.86,-8.06 19.48,-8.06 7.61,0 14.47,3.07 19.47,8.06 4.98,4.99 8.06,11.86 8.06,19.47l6.2 0c0,-9.3 -3.78,-17.76 -9.88,-23.85 -6.1,-6.1 -14.55,-9.88 -23.85,-9.88 -9.31,0 -17.77,3.78 -23.86,9.88 -6.1,6.09 -9.89,14.55 -9.88,23.85 -0.01,9.31 3.78,17.76 9.88,23.86 6.09,6.1 14.55,9.88 23.86,9.88 9.3,0 17.75,-3.78 23.85,-9.88 6.1,-6.1 9.88,-14.55 9.88,-23.86l-3.1 0z"/>
    <path class="fil0" d="M597.3 299.41l-1.55 0c0,4.04 -1.63,7.67 -4.27,10.32 -2.65,2.64 -6.29,4.27 -10.32,4.27 -4.04,0 -7.67,-1.63 -10.32,-4.27 -2.64,-2.64 -4.27,-6.28 -4.27,-10.32 0,-4.03 1.63,-7.67 4.27,-10.31 2.65,-2.65 6.28,-4.28 10.32,-4.28 4.03,0 7.67,1.63 10.32,4.28 2.64,2.64 4.27,6.28 4.27,10.31l3.1 0c0,-9.77 -7.92,-17.69 -17.69,-17.69 -9.77,0 -17.69,7.92 -17.69,17.69 0,9.78 7.92,17.69 17.69,17.69 9.77,0 17.69,-7.91 17.69,-17.69l-1.55 0z"/>
    <path class="fil0" d="M648.98 258.56l-1.24 0c-6.21,0 -11.26,5.06 -11.26,11.27 0,6.2 5.05,11.26 11.26,11.26l1.24 0c0.85,0 1.55,-0.7 1.55,-1.55l0 -19.43c0,-0.86 -0.7,-1.55 -1.55,-1.55zm0 1.55l0 19.43 -1.24 0c-5.37,0 -9.71,-4.35 -9.71,-9.71 0,-5.37 4.34,-9.72 9.71,-9.72l1.24 0z"/>
    <path class="fil0" d="M662.8 297.17l-3.1 0c0,1.46 -0.58,2.76 -1.54,3.73 -0.96,0.95 -2.26,1.54 -3.73,1.54l-20.21 0c-1.47,0 -2.77,-0.59 -3.73,-1.55 -0.96,-0.96 -1.54,-2.26 -1.54,-3.72 0,-1.46 0.58,-2.76 1.54,-3.73 0.96,-0.96 2.26,-1.54 3.73,-1.54l20.21 0c1.47,0 2.77,0.58 3.73,1.54 0.95,0.97 1.54,2.26 1.54,3.73l6.2 0c0,-3.16 -1.29,-6.04 -3.36,-8.11 -2.06,-2.07 -4.95,-3.36 -8.11,-3.36l-20.21 0c-3.16,0 -6.05,1.29 -8.11,3.36 -2.07,2.07 -3.36,4.95 -3.36,8.11 0,3.16 1.29,6.04 3.36,8.11 2.06,2.07 4.95,3.36 8.11,3.36l20.21 0c3.16,0 6.05,-1.29 8.11,-3.36 2.07,-2.07 3.36,-4.96 3.36,-8.11l-3.1 0z"/>
    <path class="fil0" d="M330.15 297.17l-3.1 0c0,1.46 -0.59,2.76 -1.55,3.72 -0.96,0.96 -2.26,1.55 -3.72,1.55l-13.87 0c-1.47,0 -2.77,-0.59 -3.73,-1.55 -0.96,-0.96 -1.54,-2.26 -1.54,-3.72 0,-1.46 0.58,-2.76 1.54,-3.73 0.96,-0.96 2.26,-1.54 3.73,-1.54l13.87 0c1.46,0 2.76,0.58 3.72,1.54 0.96,0.97 1.55,2.27 1.55,3.73l6.2 0c0,-3.16 -1.29,-6.04 -3.36,-8.11 -2.07,-2.07 -4.95,-3.36 -8.11,-3.36l-13.87 0c-3.16,0 -6.05,1.29 -8.11,3.36 -2.07,2.07 -3.37,4.95 -3.36,8.11 -0.01,3.16 1.29,6.04 3.36,8.11 2.06,2.07 4.95,3.36 8.11,3.36l13.87 0c3.16,0 6.04,-1.29 8.11,-3.36 2.07,-2.07 3.36,-4.95 3.36,-8.11l-3.1 0z"/>
    <path class="fil0" d="M610.88 299.41l0.18 0c0,2.11 -0.03,4.17 -0.07,6.17l16.14 0 0 -6.2 -16.07 0 0 0.03 -0.18 0z"/>
   </g>
   <path class="fil0" d="M235.95 63.28c-1.14,0 -2.07,-0.93 -2.07,-2.07 0,-1.15 0.93,-2.08 2.07,-2.08l96.11 0c1.14,0 2.07,0.93 2.07,2.08 0,1.14 -0.93,2.07 -2.07,2.07l-96.11 0z"/>
   <path class="fil0" d="M235.95 83.26c-1.14,0 -2.07,-0.93 -2.07,-2.07 0,-1.15 0.93,-2.08 2.07,-2.08l126.55 0c1.15,0 2.08,0.93 2.08,2.08 0,1.14 -0.93,2.07 -2.08,2.07l-126.55 0z"/>
   <path class="fil0" d="M235.95 101.34c-1.14,0 -2.07,-0.93 -2.07,-2.07 0,-1.15 0.93,-2.08 2.07,-2.08l148.44 0c1.14,0 2.07,0.93 2.07,2.08 0,1.14 -0.93,2.07 -2.07,2.07l-148.44 0z"/>
   <path class="fil0" d="M235.95 121.32c-1.14,0 -2.07,-0.93 -2.07,-2.07 0,-1.15 0.93,-2.08 2.07,-2.08l126.55 0c1.15,0 2.08,0.93 2.08,2.08 0,1.14 -0.93,2.07 -2.08,2.07l-126.55 0z"/>
   <path class="fil0" d="M235.95 141.3c-1.14,0 -2.07,-0.93 -2.07,-2.07 0,-1.15 0.93,-2.07 2.07,-2.07l63.75 0c1.15,0 2.08,0.92 2.08,2.07 0,1.14 -0.93,2.07 -2.08,2.07l-63.75 0z"/>
   <path class="fil0" d="M316.35 141.3c-1.14,0 -2.07,-0.93 -2.07,-2.07 0,-1.15 0.93,-2.07 2.07,-2.07l28.07 0c1.15,0 2.08,0.92 2.08,2.07 0,1.14 -0.93,2.07 -2.08,2.07l-28.07 0z"/>
   <path class="fil0" d="M350.13 63.28c-1.14,0 -2.07,-0.93 -2.07,-2.07 0,-1.15 0.93,-2.08 2.07,-2.08l25.69 0c1.15,0 2.08,0.93 2.08,2.08 0,1.14 -0.93,2.07 -2.08,2.07l-25.69 0z"/>
   <path class="fil0" d="M235.95 160.65c-1.14,0 -2.07,-0.93 -2.07,-2.08 0,-1.14 0.93,-2.07 2.07,-2.07l96.11 0c1.14,0 2.07,0.93 2.07,2.07 0,1.15 -0.93,2.08 -2.07,2.08l-96.11 0z"/>
   <path class="fil0" d="M235.95 180.63c-1.14,0 -2.07,-0.93 -2.07,-2.08 0,-1.14 0.93,-2.07 2.07,-2.07l126.55 0c1.15,0 2.08,0.93 2.08,2.07 0,1.15 -0.93,2.08 -2.08,2.08l-126.55 0z"/>
   <path class="fil0" d="M350.13 160.65c-1.14,0 -2.07,-0.93 -2.07,-2.08 0,-1.14 0.93,-2.07 2.07,-2.07l25.69 0c1.15,0 2.08,0.93 2.08,2.07 0,1.15 -0.93,2.08 -2.08,2.08l-25.69 0z"/>
   <path class="fil0" d="M592.03 63.28c-1.15,0 -2.07,-0.93 -2.07,-2.07 0,-1.15 0.92,-2.08 2.07,-2.08l96.1 0c1.15,0 2.08,0.93 2.08,2.08 0,1.14 -0.93,2.07 -2.08,2.07l-96.1 0z"/>
   <path class="fil0" d="M592.03 83.26c-1.15,0 -2.07,-0.93 -2.07,-2.07 0,-1.15 0.92,-2.08 2.07,-2.08l126.55 0c1.15,0 2.07,0.93 2.07,2.08 0,1.14 -0.92,2.07 -2.07,2.07l-126.55 0z"/>
   <path class="fil0" d="M592.03 101.34c-1.15,0 -2.07,-0.93 -2.07,-2.07 0,-1.15 0.92,-2.08 2.07,-2.08l148.44 0c1.14,0 2.07,0.93 2.07,2.08 0,1.14 -0.93,2.07 -2.07,2.07l-148.44 0z"/>
   <path class="fil0" d="M592.03 121.32c-1.15,0 -2.07,-0.93 -2.07,-2.07 0,-1.15 0.92,-2.08 2.07,-2.08l126.55 0c1.15,0 2.07,0.93 2.07,2.08 0,1.14 -0.92,2.07 -2.07,2.07l-126.55 0z"/>
   <path class="fil0" d="M592.03 141.3c-1.15,0 -2.07,-0.93 -2.07,-2.07 0,-1.15 0.92,-2.07 2.07,-2.07l63.75 0c1.15,0 2.08,0.92 2.08,2.07 0,1.14 -0.93,2.07 -2.08,2.07l-63.75 0z"/>
   <path class="fil0" d="M706.21 63.28c-1.14,0 -2.07,-0.93 -2.07,-2.07 0,-1.15 0.93,-2.08 2.07,-2.08l25.69 0c1.15,0 2.08,0.93 2.08,2.08 0,1.14 -0.93,2.07 -2.08,2.07l-25.69 0z"/>
   <polygon class="fil1" points="665.56,218.28 646.47,234.75 645.12,233.19 664.21,216.72 "/>
   <circle class="fil2" cx="645.79" cy="233.97" r="4.64"/>
   <path class="fil1" d="M679.68 223.37c5.04,0 9.6,-2.04 12.91,-5.35 3.3,-3.3 5.35,-7.87 5.35,-12.91 0,-5.04 -2.05,-9.6 -5.35,-12.91 -3.31,-3.3 -7.87,-5.34 -12.91,-5.34 -5.04,0 -9.61,2.04 -12.91,5.34 -3.31,3.31 -5.35,7.87 -5.35,12.91 0,5.04 2.04,9.61 5.35,12.91 3.3,3.31 7.87,5.35 12.91,5.35zm14.38 -3.88c-3.68,3.68 -8.77,5.96 -14.38,5.96 -5.61,0 -10.7,-2.28 -14.38,-5.96 -3.68,-3.68 -5.95,-8.76 -5.95,-14.38 0,-5.61 2.27,-10.69 5.95,-14.37 3.68,-3.68 8.77,-5.96 14.38,-5.96 5.61,0 10.7,2.28 14.38,5.96 3.67,3.68 5.95,8.76 5.95,14.37 0,5.62 -2.28,10.7 -5.95,14.38z"/>
   <path class="fil3" d="M691.66 210.3c0.79,1.37 -0.2,3.07 -1.77,3.07l-20.43 0c-1.57,0 -2.55,-1.71 -1.77,-3.07l10.22 -17.71c0.78,-1.36 2.75,-1.36 3.54,0l10.21 17.71 0 0zm-11.98 -3.66c-1.08,0 -1.96,0.88 -1.96,1.96 0,1.08 0.88,1.96 1.96,1.96 1.08,0 1.96,-0.88 1.96,-1.96 0,-1.08 -0.88,-1.96 -1.96,-1.96zm-1.86 -7.04l0.32 5.79c0.01,0.27 0.23,0.49 0.51,0.49l2.06 0c0.27,0 0.5,-0.22 0.51,-0.49l0.32 -5.79c0.01,-0.29 -0.22,-0.53 -0.51,-0.53l-2.7 0c-0.29,0 -0.53,0.24 -0.51,0.53z"/>
   <path class="fil1" d="M493.96 141.22c5.04,0 9.6,-2.04 12.91,-5.34 3.3,-3.31 5.34,-7.87 5.34,-12.91 0,-5.05 -2.04,-9.61 -5.34,-12.91 -3.31,-3.31 -7.87,-5.35 -12.91,-5.35 -5.04,0 -9.61,2.04 -12.91,5.35 -3.31,3.3 -5.35,7.86 -5.35,12.91 0,5.04 2.04,9.6 5.35,12.91 3.3,3.3 7.87,5.34 12.91,5.34zm14.37 -3.88c-3.68,3.68 -8.76,5.96 -14.37,5.96 -5.62,0 -10.7,-2.28 -14.38,-5.96 -3.68,-3.68 -5.96,-8.76 -5.96,-14.37 0,-5.62 2.28,-10.7 5.96,-14.38 3.68,-3.68 8.76,-5.96 14.38,-5.96 5.61,0 10.69,2.28 14.37,5.96 3.68,3.68 5.96,8.76 5.96,14.38 0,5.61 -2.28,10.69 -5.96,14.37z"/>
   <path class="fil3" d="M505.94 128.16c0.79,1.36 -0.2,3.06 -1.77,3.06l-20.43 0c-1.57,0 -2.55,-1.7 -1.77,-3.06l10.22 -17.72c0.78,-1.36 2.75,-1.36 3.54,0l10.21 17.72 0 0zm-11.98 -3.66c-1.08,0 -1.96,0.87 -1.96,1.95 0,1.09 0.88,1.96 1.96,1.96 1.08,0 1.96,-0.87 1.96,-1.96 0,-1.08 -0.88,-1.95 -1.96,-1.95zm-1.86 -7.04l0.31 5.79c0.02,0.27 0.24,0.48 0.51,0.48l2.07 0c0.27,0 0.5,-0.21 0.51,-0.48l0.32 -5.79c0.01,-0.3 -0.22,-0.54 -0.51,-0.54l-2.7 0c-0.29,0 -0.53,0.24 -0.51,0.54z"/>
   <path class="fil1" d="M249.92 290.33c5.04,0 9.6,-2.05 12.91,-5.35 3.3,-3.3 5.35,-7.87 5.35,-12.91 0,-5.04 -2.05,-9.61 -5.35,-12.91 -3.31,-3.3 -7.87,-5.35 -12.91,-5.35 -5.04,0 -9.61,2.05 -12.91,5.35 -3.3,3.3 -5.35,7.87 -5.35,12.91 0,5.04 2.05,9.61 5.35,12.91 3.3,3.3 7.87,5.35 12.91,5.35zm14.38 -3.88c-3.68,3.68 -8.77,5.95 -14.38,5.95 -5.61,0 -10.7,-2.27 -14.38,-5.95 -3.68,-3.68 -5.95,-8.77 -5.95,-14.38 0,-5.61 2.27,-10.7 5.95,-14.38 3.68,-3.68 8.77,-5.95 14.38,-5.95 5.61,0 10.7,2.27 14.38,5.95 3.67,3.68 5.95,8.77 5.95,14.38 0,5.61 -2.28,10.7 -5.95,14.38z"/>
   <path class="fil3" d="M261.9 277.26c0.79,1.36 -0.2,3.07 -1.76,3.07l-20.44 0c-1.57,0 -2.55,-1.71 -1.77,-3.07l10.22 -17.71c0.79,-1.36 2.75,-1.36 3.54,0l10.21 17.71 0 0zm-11.98 -3.66c-1.08,0 -1.96,0.88 -1.96,1.96 0,1.08 0.88,1.96 1.96,1.96 1.08,0 1.96,-0.88 1.96,-1.96 0,-1.08 -0.88,-1.96 -1.96,-1.96zm-1.86 -7.04l0.32 5.79c0.01,0.27 0.23,0.48 0.51,0.48l2.06 0c0.27,0 0.5,-0.21 0.51,-0.48l0.32 -5.79c0.01,-0.29 -0.22,-0.54 -0.51,-0.54l-2.7 0c-0.29,0 -0.53,0.25 -0.51,0.54z"/>
   <polygon class="fil1" points="269.21,271.03 307.13,271.03 307.13,273.11 269.21,273.11 "/>
   <polygon class="fil1" points="494.99,142.26 494.99,169.6 492.92,169.6 492.92,142.26 "/>
   <circle class="fil2" cx="493.96" cy="169.6" r="4.64"/>
   <circle class="fil2" cx="304.81" cy="272.07" r="4.64"/>
   <path class="fil0" d="M48.92 63.28c-1.15,0 -2.08,-0.93 -2.08,-2.07 0,-1.15 0.93,-2.08 2.08,-2.08l96.1 0c1.14,0 2.07,0.93 2.07,2.08 0,1.14 -0.93,2.07 -2.07,2.07l-96.1 0z"/>
   <path class="fil0" d="M48.92 83.26c-1.15,0 -2.08,-0.93 -2.08,-2.07 0,-1.15 0.93,-2.08 2.08,-2.08l126.55 0c1.14,0 2.07,0.93 2.07,2.08 0,1.14 -0.93,2.07 -2.07,2.07l-126.55 0z"/>
   <path class="fil0" d="M48.92 101.34c-1.15,0 -2.08,-0.93 -2.08,-2.07 0,-1.15 0.93,-2.08 2.08,-2.08l148.43 0c1.15,0 2.08,0.93 2.08,2.08 0,1.14 -0.93,2.07 -2.08,2.07l-148.43 0z"/>
   <path class="fil0" d="M48.92 121.32c-1.15,0 -2.08,-0.93 -2.08,-2.07 0,-1.15 0.93,-2.08 2.08,-2.08l126.55 0c1.14,0 2.07,0.93 2.07,2.08 0,1.14 -0.93,2.07 -2.07,2.07l-126.55 0z"/>
   <path class="fil0" d="M48.92 141.3c-1.15,0 -2.08,-0.93 -2.08,-2.07 0,-1.15 0.93,-2.07 2.08,-2.07l63.75 0c1.14,0 2.07,0.92 2.07,2.07 0,1.14 -0.93,2.07 -2.07,2.07l-63.75 0z"/>
   <path class="fil0" d="M129.32 141.3c-1.15,0 -2.08,-0.93 -2.08,-2.07 0,-1.15 0.93,-2.07 2.08,-2.07l28.07 0c1.14,0 2.07,0.92 2.07,2.07 0,1.14 -0.93,2.07 -2.07,2.07l-28.07 0z"/>
   <path class="fil0" d="M163.1 63.28c-1.15,0 -2.08,-0.93 -2.08,-2.07 0,-1.15 0.93,-2.08 2.08,-2.08l25.69 0c1.14,0 2.07,0.93 2.07,2.08 0,1.14 -0.93,2.07 -2.07,2.07l-25.69 0z"/>
   <path class="fil0" d="M48.92 160.65c-1.15,0 -2.08,-0.93 -2.08,-2.08 0,-1.14 0.93,-2.07 2.08,-2.07l96.1 0c1.14,0 2.07,0.93 2.07,2.07 0,1.15 -0.93,2.08 -2.07,2.08l-96.1 0z"/>
   <path class="fil0" d="M48.92 180.63c-1.15,0 -2.08,-0.93 -2.08,-2.08 0,-1.14 0.93,-2.07 2.08,-2.07l126.55 0c1.14,0 2.07,0.93 2.07,2.07 0,1.15 -0.93,2.08 -2.07,2.08l-126.55 0z"/>
   <path class="fil0" d="M163.1 160.65c-1.15,0 -2.08,-0.93 -2.08,-2.08 0,-1.14 0.93,-2.07 2.08,-2.07l25.69 0c1.14,0 2.07,0.93 2.07,2.07 0,1.15 -0.93,2.08 -2.07,2.08l-25.69 0z"/>
   <path class="fil0" d="M48.92 210.47c-1.15,0 -2.08,-0.93 -2.08,-2.07 0,-1.15 0.93,-2.08 2.08,-2.08l96.1 0c1.14,0 2.07,0.93 2.07,2.08 0,1.14 -0.93,2.07 -2.07,2.07l-96.1 0z"/>
   <path class="fil0" d="M48.92 230.45c-1.15,0 -2.08,-0.93 -2.08,-2.07 0,-1.15 0.93,-2.08 2.08,-2.08l126.55 0c1.14,0 2.07,0.93 2.07,2.08 0,1.14 -0.93,2.07 -2.07,2.07l-126.55 0z"/>
   <path class="fil0" d="M48.92 248.53c-1.15,0 -2.08,-0.93 -2.08,-2.07 0,-1.15 0.93,-2.08 2.08,-2.08l148.43 0c1.15,0 2.08,0.93 2.08,2.08 0,1.14 -0.93,2.07 -2.08,2.07l-148.43 0z"/>
   <path class="fil0" d="M48.92 268.51c-1.15,0 -2.08,-0.93 -2.08,-2.07 0,-1.15 0.93,-2.08 2.08,-2.08l126.55 0c1.14,0 2.07,0.93 2.07,2.08 0,1.14 -0.93,2.07 -2.07,2.07l-126.55 0z"/>
   <path class="fil0" d="M48.92 288.49c-1.15,0 -2.08,-0.93 -2.08,-2.07 0,-1.15 0.93,-2.07 2.08,-2.07l63.75 0c1.14,0 2.07,0.92 2.07,2.07 0,1.14 -0.93,2.07 -2.07,2.07l-63.75 0z"/>
   <path class="fil0" d="M129.32 288.49c-1.15,0 -2.08,-0.93 -2.08,-2.07 0,-1.15 0.93,-2.07 2.08,-2.07l28.07 0c1.14,0 2.07,0.92 2.07,2.07 0,1.14 -0.93,2.07 -2.07,2.07l-28.07 0z"/>
   <path class="fil0" d="M163.1 210.47c-1.15,0 -2.08,-0.93 -2.08,-2.07 0,-1.15 0.93,-2.08 2.08,-2.08l25.69 0c1.14,0 2.07,0.93 2.07,2.08 0,1.14 -0.93,2.07 -2.07,2.07l-25.69 0z"/>
   <path class="fil0" d="M48.92 307.84c-1.15,0 -2.08,-0.93 -2.08,-2.08 0,-1.14 0.93,-2.07 2.08,-2.07l96.1 0c1.14,0 2.07,0.93 2.07,2.07 0,1.15 -0.93,2.08 -2.07,2.08l-96.1 0z"/>
   <path class="fil0" d="M48.92 327.82c-1.15,0 -2.08,-0.93 -2.08,-2.08 0,-1.14 0.93,-2.07 2.08,-2.07l126.55 0c1.14,0 2.07,0.93 2.07,2.07 0,1.15 -0.93,2.08 -2.07,2.08l-126.55 0z"/>
   <path class="fil0" d="M163.1 307.84c-1.15,0 -2.08,-0.93 -2.08,-2.08 0,-1.14 0.93,-2.07 2.08,-2.07l25.69 0c1.14,0 2.07,0.93 2.07,2.07 0,1.15 -0.93,2.08 -2.07,2.08l-25.69 0z"/>
  </g>
 </g>
</svg>
